<svg width="329" height="100" viewBox="0 0 429 180" fill="none" xmlns="http://www.w3.org/2000/svg">
<path d="M-5.10034 131.833L-0.40842 126.37C3.92259 120.907 12.9455 109.981 21.9684 101.787C30.9914 93.5925 40.0143 88.1295 49.0372 74.4721C58.0601 60.8147 67.0831 38.9629 76.106 28.037C85.1289 17.111 94.1518 17.111 103.175 19.8425C112.198 22.574 121.221 28.037 130.244 28.037C139.266 28.037 148.289 22.574 157.312 30.7684C166.335 38.9629 175.358 60.8147 184.381 66.2777C193.404 71.7406 202.427 60.8147 211.45 58.0832C220.473 55.3518 229.496 60.8147 238.519 55.3517C247.542 49.8888 256.565 33.4999 265.587 38.9629C274.61 44.4258 283.633 71.7406 292.656 85.398C301.679 99.0554 310.702 99.0554 319.725 93.5925C328.748 88.1295 337.771 77.2036 346.794 74.4721C355.817 71.7406 364.84 77.2036 373.863 77.2036C382.885 77.2036 391.908 71.7406 400.931 58.0832C409.954 44.4258 418.977 22.574 423.669 11.6481L428 0.722168" stroke="url(#paint0_linear_463_1860)" stroke-width="1.35093" stroke-linecap="round" stroke-linejoin="round"/>
<path fill-rule="evenodd" clip-rule="evenodd" d="M-5.10034 132.098L-0.40842 126.624C3.92258 121.15 12.9455 110.202 21.9684 101.991C30.9914 93.7801 40.0143 88.3061 49.0372 74.6211C58.0601 60.9361 67.0831 39.0401 76.106 28.0921C85.1289 17.1441 94.1518 17.1441 103.175 19.8811C112.198 22.6181 121.221 28.0921 130.244 28.0921C139.266 28.0921 148.289 22.6181 157.312 30.8291C166.335 39.0401 175.358 60.9361 184.381 66.4101C193.404 71.8841 202.427 60.9361 211.45 58.1991C220.473 55.4621 229.496 60.9361 238.519 55.4621C247.542 49.9881 256.565 33.5661 265.587 39.0401C274.61 44.5141 283.633 71.8841 292.656 85.5691C301.679 99.2541 310.702 99.2541 319.725 93.7801C328.748 88.3061 337.771 77.3581 346.794 74.6211C355.817 71.8841 364.84 77.3581 373.863 77.3581C382.885 77.3581 391.908 71.8841 400.931 58.1991C409.954 44.5141 418.977 22.6181 423.669 11.6702L428 0.722168V148.52H423.669C418.977 148.52 409.954 148.52 400.931 148.52C391.908 148.52 382.885 148.52 373.863 148.52C364.84 148.52 355.817 148.52 346.794 148.52C337.771 148.52 328.748 148.52 319.725 148.52C310.702 148.52 301.679 148.52 292.656 148.52C283.633 148.52 274.61 148.52 265.587 148.52C256.565 148.52 247.542 148.52 238.519 148.52C229.496 148.52 220.473 148.52 211.45 148.52C202.427 148.52 193.404 148.52 184.381 148.52C175.358 148.52 166.335 148.52 157.312 148.52C148.289 148.52 139.266 148.52 130.244 148.52C121.221 148.52 112.198 148.52 103.175 148.52C94.1518 148.52 85.1289 148.52 76.106 148.52C67.0831 148.52 58.0601 148.52 49.0372 148.52C40.0143 148.52 30.9914 148.52 21.9684 148.52C12.9455 148.52 3.92258 148.52 -0.40842 148.52H-5.10034V132.098Z" fill="url(#paint1_linear_463_1860)" fill-opacity="0.45"/>
<path d="M331.882 76.2529L331.882 145.973" stroke="#13C783" stroke-width="1.35093" stroke-dasharray="5.4 5.4"/>
<circle cx="331.64" cy="76.4133" r="7.07126" fill="white" stroke="#13C783" stroke-width="1.35093"/>
<rect x="308.642" y="40.1013" width="52.1604" height="23.2402" rx="2.58224" fill="#D3E5FF" fill-opacity="0.2"/>
<path d="M317.616 49.3925V44.6979L316.501 45.0543V44.543L317.833 43.9698H318.275V49.3925H317.616ZM319.606 49.3925V48.9354C319.988 48.6462 320.349 48.3544 320.69 48.06C321.031 47.7656 321.333 47.4739 321.597 47.1846C321.86 46.8903 322.067 46.6036 322.216 46.3248C322.366 46.0459 322.441 45.7773 322.441 45.5191C322.441 45.328 322.405 45.1524 322.333 44.9923C322.265 44.8271 322.154 44.6928 321.999 44.5895C321.85 44.4862 321.646 44.4346 321.387 44.4346C321.14 44.4346 320.933 44.4888 320.768 44.5972C320.602 44.7005 320.478 44.84 320.396 45.0156C320.313 45.186 320.272 45.3745 320.272 45.5811H319.644C319.65 45.2247 319.727 44.92 319.877 44.667C320.027 44.4087 320.233 44.2125 320.497 44.0782C320.76 43.9439 321.059 43.8768 321.395 43.8768C321.726 43.8768 322.017 43.9388 322.271 44.0627C322.524 44.1815 322.722 44.3623 322.867 44.605C323.017 44.8425 323.092 45.1395 323.092 45.4959C323.092 45.7489 323.037 46.002 322.929 46.255C322.826 46.5081 322.684 46.756 322.503 46.9987C322.322 47.2363 322.121 47.4661 321.899 47.6882C321.682 47.9103 321.457 48.1194 321.225 48.3157C320.992 48.5119 320.773 48.6901 320.566 48.8502H323.278V49.3925H319.606ZM326.449 49.3925L328.448 43.9698H329.137L331.128 49.3925H330.431L328.789 44.7832L327.131 49.3925H326.449ZM327.363 47.998L327.549 47.4713H330.005L330.191 47.998H327.363ZM332.19 49.3925V43.9698H333.933C334.367 43.9698 334.723 44.0421 335.002 44.1867C335.281 44.3313 335.487 44.5275 335.622 44.7754C335.756 45.0181 335.823 45.2944 335.823 45.6043C335.823 45.909 335.756 46.1853 335.622 46.4332C335.487 46.6811 335.281 46.8774 335.002 47.022C334.728 47.1666 334.372 47.2389 333.933 47.2389H332.841V49.3925H332.19ZM332.841 46.6889H333.925C334.38 46.6889 334.697 46.5907 334.878 46.3945C335.064 46.1931 335.157 45.9297 335.157 45.6043C335.157 45.2635 335.064 44.9975 334.878 44.8064C334.697 44.6101 334.38 44.512 333.925 44.512H332.841V46.6889ZM336.946 49.3925V43.9698H338.697C339.121 43.9698 339.467 44.0421 339.735 44.1867C340.004 44.3261 340.202 44.5146 340.332 44.7522C340.461 44.9897 340.525 45.2583 340.525 45.5578C340.525 45.847 340.458 46.113 340.324 46.3557C340.195 46.5985 339.993 46.7921 339.72 46.9367C339.446 47.0814 339.095 47.1537 338.666 47.1537H337.597V49.3925H336.946ZM339.813 49.3925L338.62 46.9677H339.348L340.579 49.3925H339.813ZM337.597 46.6424H338.651C339.064 46.6424 339.366 46.5417 339.557 46.3402C339.753 46.1388 339.851 45.8806 339.851 45.5656C339.851 45.2454 339.756 44.9923 339.565 44.8064C339.379 44.6153 339.071 44.5198 338.643 44.5198H337.597V46.6424ZM342.606 43.9698L341.909 45.9142H341.444L341.878 43.9698H342.606ZM343.575 49.3925V48.9354C343.957 48.6462 344.318 48.3544 344.659 48.06C345 47.7656 345.302 47.4739 345.565 47.1846C345.829 46.8903 346.035 46.6036 346.185 46.3248C346.335 46.0459 346.41 45.7773 346.41 45.5191C346.41 45.328 346.374 45.1524 346.301 44.9923C346.234 44.8271 346.123 44.6928 345.968 44.5895C345.818 44.4862 345.614 44.4346 345.356 44.4346C345.108 44.4346 344.902 44.4888 344.737 44.5972C344.571 44.7005 344.447 44.84 344.365 45.0156C344.282 45.186 344.241 45.3745 344.241 45.5811H343.613C343.618 45.2247 343.696 44.92 343.846 44.667C343.995 44.4087 344.202 44.2125 344.465 44.0782C344.729 43.9439 345.028 43.8768 345.364 43.8768C345.695 43.8768 345.986 43.9388 346.239 44.0627C346.492 44.1815 346.691 44.3623 346.836 44.605C346.986 44.8425 347.061 45.1395 347.061 45.4959C347.061 45.7489 347.006 46.002 346.898 46.255C346.795 46.5081 346.653 46.756 346.472 46.9987C346.291 47.2363 346.09 47.4661 345.868 47.6882C345.651 47.9103 345.426 48.1194 345.194 48.3157C344.961 48.5119 344.742 48.6901 344.535 48.8502H347.246V49.3925H343.575ZM350.804 49.3925V48.2304H348.054V47.7269L350.688 43.9698H351.447V47.6572H352.253V48.2304H351.447V49.3925H350.804ZM348.775 47.6572H350.835V44.6902L348.775 47.6572Z" fill="#343A40"/>
<path d="M320.779 61.5164C320.077 61.5164 319.547 61.3236 319.189 60.938C318.831 60.5524 318.652 60.0084 318.652 59.306V57.8393C319.306 57.8393 319.826 57.8186 320.211 57.7773C320.604 57.736 320.896 57.6534 321.089 57.5294C321.282 57.3986 321.409 57.2058 321.471 56.951C321.533 56.6962 321.564 56.3554 321.564 55.9284V54.5753H322.535V55.9181C322.535 56.4001 322.487 56.8098 322.391 57.1473C322.294 57.4847 322.136 57.7567 321.915 57.9632C321.695 58.1698 321.396 58.3213 321.017 58.4177C320.645 58.5072 320.18 58.552 319.622 58.552V59.368C319.622 59.7743 319.709 60.1013 319.881 60.3492C320.053 60.5902 320.352 60.7107 320.779 60.7107C321.179 60.7107 321.464 60.5971 321.637 60.3699C321.816 60.1427 321.905 59.8259 321.905 59.4196H322.866C322.852 60.1013 322.666 60.6212 322.308 60.9793C321.957 61.3374 321.447 61.5164 320.779 61.5164ZM318.238 56.6825V55.9698H323.816V56.6825H318.238ZM318.238 54.8955V54.1622H323.816V54.8955H318.238ZM325.818 61.3925L328.463 55.0505H324.651V54.1622H329.526V54.9162L326.903 61.3925H325.818ZM329.653 62.6629L330.252 60.2769H331.285L330.355 62.6629H329.653ZM335.86 61.3925V59.9154H332.234V59.1098L335.695 54.1622H336.893V59.0168H337.915V59.9154H336.893V61.3925H335.86ZM333.36 59.0168H335.922V55.2984L333.36 59.0168ZM342.429 61.3925V59.9154H338.803V59.1098L342.264 54.1622H343.462V59.0168H344.484V59.9154H343.462V61.3925H342.429ZM339.929 59.0168H342.491V55.2984L339.929 59.0168ZM348.151 61.5164C347.655 61.5164 347.225 61.4303 346.86 61.2582C346.502 61.0791 346.219 60.8381 346.013 60.5352C345.806 60.2322 345.679 59.8879 345.631 59.5023H346.643C346.712 59.8328 346.877 60.1048 347.139 60.3182C347.4 60.5317 347.741 60.6384 348.161 60.6384C348.471 60.6384 348.736 60.5661 348.957 60.4215C349.177 60.2769 349.346 60.0772 349.463 59.8225C349.587 59.5677 349.649 59.2853 349.649 58.9755C349.649 58.6518 349.587 58.3695 349.463 58.1285C349.346 57.8875 349.177 57.7016 348.957 57.5707C348.743 57.433 348.492 57.3642 348.203 57.3642C347.851 57.3642 347.552 57.4399 347.304 57.5914C347.056 57.736 346.867 57.9116 346.736 58.1182H345.734L346.292 54.1622H350.237V55.0608H347.077L346.725 57.1266C346.891 56.9407 347.111 56.7926 347.387 56.6825C347.662 56.5654 347.979 56.5069 348.337 56.5069C348.702 56.5069 349.025 56.5723 349.308 56.7031C349.597 56.8271 349.841 57.0026 350.041 57.2299C350.241 57.4571 350.392 57.7188 350.496 58.0149C350.599 58.3041 350.65 58.6174 350.65 58.9548C350.65 59.3129 350.592 59.6469 350.475 59.9567C350.358 60.2666 350.189 60.5386 349.969 60.7727C349.755 61.0068 349.494 61.1893 349.184 61.3202C348.881 61.451 348.536 61.5164 348.151 61.5164Z" fill="#4E93FB"/>
<path d="M38.1297 174.492C37.6683 174.492 37.2517 174.406 36.8799 174.234C36.5149 174.055 36.2223 173.81 36.0019 173.501C35.7884 173.184 35.6817 172.819 35.6817 172.406C35.6817 172.11 35.7368 171.834 35.847 171.579C35.964 171.325 36.1224 171.104 36.3221 170.918C36.5287 170.725 36.7697 170.591 37.0451 170.515C36.6733 170.378 36.3806 170.164 36.1672 169.875C35.9606 169.586 35.8573 169.273 35.8573 168.935C35.8573 168.577 35.9503 168.253 36.1362 167.964C36.3221 167.675 36.5838 167.444 36.9212 167.272C37.2586 167.1 37.6614 167.014 38.1297 167.014C38.5979 167.014 39.0008 167.1 39.3382 167.272C39.6756 167.444 39.9338 167.675 40.1128 167.964C40.2919 168.253 40.3814 168.577 40.3814 168.935C40.3814 169.273 40.2781 169.586 40.0715 169.875C39.8649 170.164 39.5792 170.378 39.2142 170.515C39.4828 170.591 39.7169 170.725 39.9166 170.918C40.1232 171.104 40.2815 171.325 40.3917 171.579C40.5088 171.834 40.5673 172.11 40.5673 172.406C40.5673 172.819 40.4606 173.184 40.2471 173.501C40.0336 173.81 39.741 174.055 39.3691 174.234C38.9973 174.406 38.5841 174.492 38.1297 174.492ZM38.1297 173.728C38.653 173.728 39.0455 173.604 39.3072 173.356C39.5688 173.101 39.6997 172.767 39.6997 172.354C39.6997 171.886 39.5551 171.531 39.2659 171.29C38.9766 171.049 38.5979 170.929 38.1297 170.929C37.6545 170.929 37.2724 171.049 36.9832 171.29C36.6939 171.531 36.5493 171.886 36.5493 172.354C36.5493 172.767 36.6802 173.101 36.9418 173.356C37.2035 173.604 37.5995 173.728 38.1297 173.728ZM38.1297 170.206C38.5428 170.206 38.8734 170.092 39.1213 169.865C39.376 169.638 39.5034 169.345 39.5034 168.987C39.5034 168.581 39.3795 168.274 39.1316 168.067C38.8837 167.861 38.5497 167.758 38.1297 167.758C37.7027 167.758 37.3653 167.861 37.1174 168.067C36.8695 168.274 36.7456 168.581 36.7456 168.987C36.7456 169.345 36.8695 169.638 37.1174 169.865C37.3722 170.092 37.7096 170.206 38.1297 170.206ZM44.5444 174.368L47.2093 167.138H48.1286L50.7831 174.368H49.8535L47.6638 168.222L45.4534 174.368H44.5444ZM45.7633 172.509L46.0112 171.807H49.2854L49.5333 172.509H45.7633ZM51.9301 176.641V168.997H52.7151L52.7874 169.844C52.8975 169.665 53.0353 169.503 53.2005 169.359C53.3727 169.214 53.5758 169.097 53.8099 169.007C54.0509 168.918 54.3264 168.873 54.6362 168.873C55.132 168.873 55.5658 168.997 55.9377 169.245C56.3095 169.486 56.5987 169.82 56.8053 170.247C57.0119 170.667 57.1152 171.149 57.1152 171.693C57.1152 172.23 57.0119 172.712 56.8053 173.139C56.5987 173.559 56.3061 173.89 55.9274 174.131C55.5555 174.372 55.1217 174.492 54.6259 174.492C54.2059 174.492 53.8375 174.406 53.5207 174.234C53.204 174.062 52.9629 173.821 52.7977 173.511V176.641H51.9301ZM54.533 173.738C54.8566 173.738 55.1458 173.655 55.4006 173.49C55.6554 173.318 55.8551 173.08 55.9997 172.778C56.1512 172.468 56.2269 172.103 56.2269 171.683C56.2269 171.263 56.1512 170.901 55.9997 170.598C55.8551 170.288 55.6554 170.051 55.4006 169.885C55.1458 169.713 54.8566 169.627 54.533 169.627C54.1887 169.627 53.8857 169.713 53.624 169.885C53.3692 170.051 53.1695 170.288 53.0249 170.598C52.8872 170.901 52.8183 171.263 52.8183 171.683C52.8183 172.103 52.8872 172.468 53.0249 172.778C53.1695 173.08 53.3692 173.318 53.624 173.49C53.8857 173.655 54.1887 173.738 54.533 173.738ZM58.4688 174.368V168.997H59.2538L59.3157 169.989C59.4328 169.741 59.5877 169.534 59.7805 169.369C59.9802 169.204 60.2178 169.08 60.4932 168.997C60.7756 168.914 61.0923 168.873 61.4435 168.873V169.782H60.9684C60.7549 169.782 60.5483 169.81 60.3486 169.865C60.1558 169.92 59.9802 170.013 59.8219 170.144C59.6704 170.268 59.5499 170.436 59.4603 170.65C59.3777 170.863 59.3364 171.135 59.3364 171.466V174.368H58.4688Z" fill="#868E96"/>
<path d="M90.4692 174.492C90.0216 174.492 89.6326 174.406 89.302 174.234C88.9784 174.062 88.7202 173.831 88.5274 173.542C88.3415 173.246 88.2278 172.922 88.1865 172.571H88.9922C89.061 172.943 89.2263 173.232 89.488 173.439C89.7496 173.638 90.0802 173.738 90.4795 173.738C90.8445 173.738 91.1647 173.631 91.4401 173.418C91.7225 173.198 91.9463 172.867 92.1115 172.426C92.2837 171.986 92.3835 171.428 92.4111 170.753C92.4179 170.712 92.4214 170.677 92.4214 170.65C92.4214 170.615 92.4214 170.581 92.4214 170.546C92.325 170.76 92.1769 170.96 91.9772 171.146C91.7844 171.331 91.5503 171.483 91.2749 171.6C91.0063 171.71 90.7033 171.765 90.3659 171.765C89.9665 171.765 89.5878 171.669 89.2297 171.476C88.8786 171.283 88.5928 171.015 88.3724 170.67C88.159 170.319 88.0522 169.909 88.0522 169.441C88.0522 169.035 88.1486 168.646 88.3415 168.274C88.5411 167.902 88.8235 167.599 89.1884 167.365C89.5534 167.131 89.9838 167.014 90.4795 167.014C90.996 167.014 91.4298 167.11 91.781 167.303C92.1391 167.496 92.4248 167.758 92.6383 168.088C92.8518 168.412 93.0067 168.78 93.1031 169.193C93.1995 169.607 93.2477 170.03 93.2477 170.464C93.2477 171.256 93.1375 171.955 92.9172 172.561C92.7037 173.167 92.3904 173.642 91.9772 173.986C91.5641 174.323 91.0614 174.492 90.4692 174.492ZM90.5415 171.011C90.8514 171.011 91.1337 170.942 91.3885 170.805C91.6433 170.66 91.843 170.464 91.9876 170.216C92.1322 169.968 92.2045 169.693 92.2045 169.39C92.2045 169.066 92.1322 168.784 91.9876 168.543C91.843 168.302 91.6433 168.116 91.3885 167.985C91.1337 167.847 90.8514 167.778 90.5415 167.778C90.2385 167.778 89.9631 167.847 89.7152 167.985C89.4742 168.123 89.2814 168.312 89.1368 168.553C88.9991 168.794 88.9302 169.076 88.9302 169.4C88.9302 169.724 88.9991 170.006 89.1368 170.247C89.2814 170.488 89.4742 170.677 89.7152 170.815C89.9631 170.946 90.2385 171.011 90.5415 171.011ZM97.127 174.368L99.7919 167.138H100.711L103.366 174.368H102.436L100.246 168.222L98.036 174.368H97.127ZM98.3459 172.509L98.5938 171.807H101.868L102.116 172.509H98.3459ZM104.513 176.641V168.997H105.298L105.37 169.844C105.48 169.665 105.618 169.503 105.783 169.359C105.955 169.214 106.158 169.097 106.393 169.007C106.634 168.918 106.909 168.873 107.219 168.873C107.715 168.873 108.148 168.997 108.52 169.245C108.892 169.486 109.181 169.82 109.388 170.247C109.594 170.667 109.698 171.149 109.698 171.693C109.698 172.23 109.594 172.712 109.388 173.139C109.181 173.559 108.889 173.89 108.51 174.131C108.138 174.372 107.704 174.492 107.209 174.492C106.788 174.492 106.42 174.406 106.103 174.234C105.787 174.062 105.546 173.821 105.38 173.511V176.641H104.513ZM107.116 173.738C107.439 173.738 107.728 173.655 107.983 173.49C108.238 173.318 108.438 173.08 108.582 172.778C108.734 172.468 108.809 172.103 108.809 171.683C108.809 171.263 108.734 170.901 108.582 170.598C108.438 170.288 108.238 170.051 107.983 169.885C107.728 169.713 107.439 169.627 107.116 169.627C106.771 169.627 106.468 169.713 106.207 169.885C105.952 170.051 105.752 170.288 105.608 170.598C105.47 170.901 105.401 171.263 105.401 171.683C105.401 172.103 105.47 172.468 105.608 172.778C105.752 173.08 105.952 173.318 106.207 173.49C106.468 173.655 106.771 173.738 107.116 173.738ZM111.051 174.368V168.997H111.836L111.898 169.989C112.015 169.741 112.17 169.534 112.363 169.369C112.563 169.204 112.8 169.08 113.076 168.997C113.358 168.914 113.675 168.873 114.026 168.873V169.782H113.551C113.338 169.782 113.131 169.81 112.931 169.865C112.738 169.92 112.563 170.013 112.404 170.144C112.253 170.268 112.132 170.436 112.043 170.65C111.96 170.863 111.919 171.135 111.919 171.466V174.368H111.051Z" fill="#868E96"/>
<path d="M141.549 174.368V168.109L140.123 168.543V167.871L141.838 167.138H142.427V174.368H141.549ZM146.755 174.492C146.142 174.492 145.615 174.337 145.174 174.027C144.74 173.711 144.406 173.273 144.172 172.716C143.938 172.151 143.821 171.497 143.821 170.753C143.821 170.009 143.938 169.359 144.172 168.801C144.406 168.236 144.74 167.799 145.174 167.489C145.615 167.172 146.142 167.014 146.755 167.014C147.36 167.014 147.88 167.172 148.314 167.489C148.748 167.799 149.082 168.236 149.316 168.801C149.55 169.359 149.667 170.009 149.667 170.753C149.667 171.497 149.55 172.151 149.316 172.716C149.082 173.273 148.748 173.711 148.314 174.027C147.88 174.337 147.36 174.492 146.755 174.492ZM146.755 173.728C147.14 173.728 147.484 173.611 147.787 173.377C148.09 173.136 148.331 172.795 148.51 172.354C148.689 171.906 148.779 171.373 148.779 170.753C148.779 170.126 148.689 169.593 148.51 169.152C148.331 168.711 148.09 168.374 147.787 168.14C147.484 167.906 147.14 167.789 146.755 167.789C146.355 167.789 146 167.906 145.691 168.14C145.388 168.374 145.147 168.711 144.968 169.152C144.795 169.593 144.709 170.126 144.709 170.753C144.709 171.373 144.795 171.906 144.968 172.354C145.147 172.795 145.388 173.136 145.691 173.377C146 173.611 146.355 173.728 146.755 173.728ZM153.455 174.368L156.119 167.138H157.039L159.693 174.368H158.764L156.574 168.222L154.363 174.368H153.455ZM154.673 172.509L154.921 171.807H158.196L158.443 172.509H154.673ZM160.84 176.641V168.997H161.625L161.697 169.844C161.808 169.665 161.945 169.503 162.111 169.359C162.283 169.214 162.486 169.097 162.72 169.007C162.961 168.918 163.236 168.873 163.546 168.873C164.042 168.873 164.476 168.997 164.848 169.245C165.22 169.486 165.509 169.82 165.715 170.247C165.922 170.667 166.025 171.149 166.025 171.693C166.025 172.23 165.922 172.712 165.715 173.139C165.509 173.559 165.216 173.89 164.837 174.131C164.466 174.372 164.032 174.492 163.536 174.492C163.116 174.492 162.748 174.406 162.431 174.234C162.114 174.062 161.873 173.821 161.708 173.511V176.641H160.84ZM163.443 173.738C163.767 173.738 164.056 173.655 164.311 173.49C164.565 173.318 164.765 173.08 164.91 172.778C165.061 172.468 165.137 172.103 165.137 171.683C165.137 171.263 165.061 170.901 164.91 170.598C164.765 170.288 164.565 170.051 164.311 169.885C164.056 169.713 163.767 169.627 163.443 169.627C163.099 169.627 162.796 169.713 162.534 169.885C162.279 170.051 162.08 170.288 161.935 170.598C161.797 170.901 161.728 171.263 161.728 171.683C161.728 172.103 161.797 172.468 161.935 172.778C162.08 173.08 162.279 173.318 162.534 173.49C162.796 173.655 163.099 173.738 163.443 173.738ZM167.379 174.368V168.997H168.164L168.226 169.989C168.343 169.741 168.498 169.534 168.691 169.369C168.89 169.204 169.128 169.08 169.403 168.997C169.686 168.914 170.002 168.873 170.354 168.873V169.782H169.878C169.665 169.782 169.458 169.81 169.259 169.865C169.066 169.92 168.89 170.013 168.732 170.144C168.58 170.268 168.46 170.436 168.37 170.65C168.288 170.863 168.246 171.135 168.246 171.466V174.368H167.379Z" fill="#868E96"/>
<path d="M197.93 174.368V168.109L196.504 168.543V167.871L198.219 167.138H198.808V174.368H197.93ZM201.483 174.368V168.109L200.057 168.543V167.871L201.772 167.138H202.361V174.368H201.483ZM206.436 174.368L209.101 167.138H210.02L212.675 174.368H211.745L209.555 168.222L207.345 174.368H206.436ZM207.655 172.509L207.903 171.807H211.177L211.425 172.509H207.655ZM213.822 176.641V168.997H214.607L214.679 169.844C214.789 169.665 214.927 169.503 215.092 169.359C215.264 169.214 215.467 169.097 215.702 169.007C215.943 168.918 216.218 168.873 216.528 168.873C217.024 168.873 217.458 168.997 217.829 169.245C218.201 169.486 218.49 169.82 218.697 170.247C218.904 170.667 219.007 171.149 219.007 171.693C219.007 172.23 218.904 172.712 218.697 173.139C218.49 173.559 218.198 173.89 217.819 174.131C217.447 174.372 217.013 174.492 216.518 174.492C216.098 174.492 215.729 174.406 215.412 174.234C215.096 174.062 214.855 173.821 214.689 173.511V176.641H213.822ZM216.425 173.738C216.748 173.738 217.037 173.655 217.292 173.49C217.547 173.318 217.747 173.08 217.891 172.778C218.043 172.468 218.119 172.103 218.119 171.683C218.119 171.263 218.043 170.901 217.891 170.598C217.747 170.288 217.547 170.051 217.292 169.885C217.037 169.713 216.748 169.627 216.425 169.627C216.08 169.627 215.777 169.713 215.516 169.885C215.261 170.051 215.061 170.288 214.917 170.598C214.779 170.901 214.71 171.263 214.71 171.683C214.71 172.103 214.779 172.468 214.917 172.778C215.061 173.08 215.261 173.318 215.516 173.49C215.777 173.655 216.08 173.738 216.425 173.738ZM220.36 174.368V168.997H221.145L221.207 169.989C221.324 169.741 221.479 169.534 221.672 169.369C221.872 169.204 222.109 169.08 222.385 168.997C222.667 168.914 222.984 168.873 223.335 168.873V169.782H222.86C222.647 169.782 222.44 169.81 222.24 169.865C222.048 169.92 221.872 170.013 221.714 170.144C221.562 170.268 221.442 170.436 221.352 170.65C221.269 170.863 221.228 171.135 221.228 171.466V174.368H220.36Z" fill="#868E96"/>
<path d="M251.311 174.368V168.109L249.885 168.543V167.871L251.6 167.138H252.189V174.368H251.311ZM253.748 174.368V173.759C254.251 173.373 254.726 172.984 255.174 172.592C255.628 172.199 256.028 171.81 256.372 171.424C256.723 171.032 256.998 170.65 257.198 170.278C257.398 169.906 257.498 169.548 257.498 169.204C257.498 168.949 257.453 168.715 257.363 168.501C257.274 168.281 257.126 168.102 256.919 167.964C256.72 167.826 256.451 167.758 256.114 167.758C255.783 167.758 255.508 167.83 255.287 167.975C255.067 168.112 254.902 168.298 254.792 168.532C254.688 168.76 254.637 169.011 254.637 169.286H253.8C253.807 168.811 253.907 168.405 254.099 168.067C254.299 167.723 254.575 167.462 254.926 167.282C255.277 167.103 255.676 167.014 256.124 167.014C256.558 167.014 256.943 167.097 257.281 167.262C257.618 167.42 257.883 167.661 258.076 167.985C258.269 168.302 258.365 168.698 258.365 169.173C258.365 169.51 258.293 169.848 258.148 170.185C258.011 170.522 257.821 170.853 257.58 171.177C257.346 171.493 257.081 171.8 256.785 172.096C256.496 172.392 256.196 172.671 255.886 172.932C255.583 173.194 255.298 173.432 255.029 173.645H258.613V174.368H253.748ZM262.42 174.368L265.085 167.138H266.004L268.658 174.368H267.729L265.539 168.222L263.329 174.368H262.42ZM263.638 172.509L263.886 171.807H267.161L267.409 172.509H263.638ZM269.805 176.641V168.997H270.59L270.663 169.844C270.773 169.665 270.91 169.503 271.076 169.359C271.248 169.214 271.451 169.097 271.685 169.007C271.926 168.918 272.202 168.873 272.511 168.873C273.007 168.873 273.441 168.997 273.813 169.245C274.185 169.486 274.474 169.82 274.681 170.247C274.887 170.667 274.99 171.149 274.99 171.693C274.99 172.23 274.887 172.712 274.681 173.139C274.474 173.559 274.181 173.89 273.803 174.131C273.431 174.372 272.997 174.492 272.501 174.492C272.081 174.492 271.713 174.406 271.396 174.234C271.079 174.062 270.838 173.821 270.673 173.511V176.641H269.805ZM272.408 173.738C272.732 173.738 273.021 173.655 273.276 173.49C273.531 173.318 273.73 173.08 273.875 172.778C274.026 172.468 274.102 172.103 274.102 171.683C274.102 171.263 274.026 170.901 273.875 170.598C273.73 170.288 273.531 170.051 273.276 169.885C273.021 169.713 272.732 169.627 272.408 169.627C272.064 169.627 271.761 169.713 271.499 169.885C271.244 170.051 271.045 170.288 270.9 170.598C270.762 170.901 270.694 171.263 270.694 171.683C270.694 172.103 270.762 172.468 270.9 172.778C271.045 173.08 271.244 173.318 271.499 173.49C271.761 173.655 272.064 173.738 272.408 173.738ZM276.344 174.368V168.997H277.129L277.191 169.989C277.308 169.741 277.463 169.534 277.656 169.369C277.855 169.204 278.093 169.08 278.368 168.997C278.651 168.914 278.968 168.873 279.319 168.873V169.782H278.844C278.63 169.782 278.424 169.81 278.224 169.865C278.031 169.92 277.855 170.013 277.697 170.144C277.546 170.268 277.425 170.436 277.336 170.65C277.253 170.863 277.212 171.135 277.212 171.466V174.368H276.344Z" fill="#868E96"/>
<path d="M307.692 174.368V168.109L306.266 168.543V167.871L307.981 167.138H308.57V174.368H307.692ZM312.515 174.492C312.054 174.492 311.634 174.409 311.255 174.244C310.883 174.072 310.587 173.817 310.367 173.48C310.146 173.142 310.029 172.722 310.016 172.22H310.894C310.9 172.495 310.966 172.75 311.09 172.984C311.221 173.211 311.407 173.394 311.648 173.532C311.889 173.669 312.178 173.738 312.515 173.738C312.853 173.738 313.135 173.673 313.362 173.542C313.589 173.411 313.762 173.239 313.879 173.025C313.996 172.805 314.054 172.561 314.054 172.292C314.054 171.968 313.972 171.703 313.806 171.497C313.648 171.29 313.431 171.139 313.156 171.042C312.887 170.939 312.591 170.887 312.267 170.887H311.73V170.154H312.267C312.749 170.154 313.128 170.044 313.403 169.823C313.686 169.596 313.827 169.286 313.827 168.894C313.827 168.57 313.717 168.302 313.496 168.088C313.276 167.875 312.949 167.768 312.515 167.768C312.088 167.768 311.751 167.885 311.503 168.119C311.262 168.353 311.124 168.653 311.09 169.018H310.212C310.232 168.625 310.339 168.278 310.532 167.975C310.725 167.672 310.99 167.437 311.327 167.272C311.672 167.1 312.068 167.014 312.515 167.014C312.997 167.014 313.4 167.097 313.724 167.262C314.047 167.427 314.292 167.647 314.457 167.923C314.622 168.198 314.705 168.505 314.705 168.842C314.705 169.09 314.657 169.328 314.56 169.555C314.471 169.775 314.333 169.968 314.147 170.133C313.961 170.299 313.727 170.416 313.445 170.484C313.727 170.54 313.978 170.646 314.199 170.805C314.426 170.963 314.605 171.17 314.736 171.424C314.867 171.672 314.932 171.962 314.932 172.292C314.932 172.685 314.839 173.05 314.653 173.387C314.474 173.717 314.206 173.986 313.848 174.193C313.49 174.392 313.045 174.492 312.515 174.492ZM318.901 174.368L321.566 167.138H322.486L325.14 174.368H324.21L322.021 168.222L319.81 174.368H318.901ZM320.12 172.509L320.368 171.807H323.642L323.89 172.509H320.12ZM326.287 176.641V168.997H327.072L327.144 169.844C327.254 169.665 327.392 169.503 327.557 169.359C327.73 169.214 327.933 169.097 328.167 169.007C328.408 168.918 328.683 168.873 328.993 168.873C329.489 168.873 329.923 168.997 330.295 169.245C330.666 169.486 330.956 169.82 331.162 170.247C331.369 170.667 331.472 171.149 331.472 171.693C331.472 172.23 331.369 172.712 331.162 173.139C330.956 173.559 330.663 173.89 330.284 174.131C329.912 174.372 329.479 174.492 328.983 174.492C328.563 174.492 328.194 174.406 327.878 174.234C327.561 174.062 327.32 173.821 327.155 173.511V176.641H326.287ZM328.89 173.738C329.214 173.738 329.503 173.655 329.758 173.49C330.012 173.318 330.212 173.08 330.357 172.778C330.508 172.468 330.584 172.103 330.584 171.683C330.584 171.263 330.508 170.901 330.357 170.598C330.212 170.288 330.012 170.051 329.758 169.885C329.503 169.713 329.214 169.627 328.89 169.627C328.546 169.627 328.243 169.713 327.981 169.885C327.726 170.051 327.526 170.288 327.382 170.598C327.244 170.901 327.175 171.263 327.175 171.683C327.175 172.103 327.244 172.468 327.382 172.778C327.526 173.08 327.726 173.318 327.981 173.49C328.243 173.655 328.546 173.738 328.89 173.738ZM332.826 174.368V168.997H333.611L333.673 169.989C333.79 169.741 333.945 169.534 334.137 169.369C334.337 169.204 334.575 169.08 334.85 168.997C335.132 168.914 335.449 168.873 335.8 168.873V169.782H335.325C335.112 169.782 334.905 169.81 334.706 169.865C334.513 169.92 334.337 170.013 334.179 170.144C334.027 170.268 333.907 170.436 333.817 170.65C333.735 170.863 333.693 171.135 333.693 171.466V174.368H332.826Z" fill="#868E96"/>
<path d="M364.073 174.368V168.109L362.647 168.543V167.871L364.362 167.138H364.951V174.368H364.073ZM369.919 174.368V172.819H366.252V172.147L369.764 167.138H370.776V172.054H371.85V172.819H370.776V174.368H369.919ZM367.213 172.054H369.96V168.098L367.213 172.054ZM375.454 174.368L378.119 167.138H379.038L381.693 174.368H380.763L378.573 168.222L376.363 174.368H375.454ZM376.673 172.509L376.921 171.807H380.195L380.443 172.509H376.673ZM382.84 176.641V168.997H383.625L383.697 169.844C383.807 169.665 383.945 169.503 384.11 169.359C384.282 169.214 384.485 169.097 384.719 169.007C384.96 168.918 385.236 168.873 385.546 168.873C386.042 168.873 386.475 168.997 386.847 169.245C387.219 169.486 387.508 169.82 387.715 170.247C387.921 170.667 388.025 171.149 388.025 171.693C388.025 172.23 387.921 172.712 387.715 173.139C387.508 173.559 387.216 173.89 386.837 174.131C386.465 174.372 386.031 174.492 385.535 174.492C385.115 174.492 384.747 174.406 384.43 174.234C384.113 174.062 383.872 173.821 383.707 173.511V176.641H382.84ZM385.442 173.738C385.766 173.738 386.055 173.655 386.31 173.49C386.565 173.318 386.765 173.08 386.909 172.778C387.061 172.468 387.136 172.103 387.136 171.683C387.136 171.263 387.061 170.901 386.909 170.598C386.765 170.288 386.565 170.051 386.31 169.885C386.055 169.713 385.766 169.627 385.442 169.627C385.098 169.627 384.795 169.713 384.533 169.885C384.279 170.051 384.079 170.288 383.934 170.598C383.797 170.901 383.728 171.263 383.728 171.683C383.728 172.103 383.797 172.468 383.934 172.778C384.079 173.08 384.279 173.318 384.533 173.49C384.795 173.655 385.098 173.738 385.442 173.738ZM389.378 174.368V168.997H390.163L390.225 169.989C390.342 169.741 390.497 169.534 390.69 169.369C390.89 169.204 391.127 169.08 391.403 168.997C391.685 168.914 392.002 168.873 392.353 168.873V169.782H391.878C391.664 169.782 391.458 169.81 391.258 169.865C391.065 169.92 390.89 170.013 390.731 170.144C390.58 170.268 390.459 170.436 390.37 170.65C390.287 170.863 390.246 171.135 390.246 171.466V174.368H389.378Z" fill="#868E96"/>
<defs>
<linearGradient id="paint0_linear_463_1860" x1="354.341" y1="29.5809" x2="-16.2943" y2="126.486" gradientUnits="userSpaceOnUse">
<stop stop-color="#13C783"/>
<stop offset="1" stop-color="white" stop-opacity="0"/>
</linearGradient>
<linearGradient id="paint1_linear_463_1860" x1="213.042" y1="-6.31582" x2="213.042" y2="148.52" gradientUnits="userSpaceOnUse">
<stop stop-color="#13C783"/>
<stop offset="1" stop-color="white"/>
</linearGradient>
</defs>
</svg>
