<svg width="103" height="291" viewBox="0 0 103 291" fill="none" xmlns="http://www.w3.org/2000/svg">
<path d="M0.582031 254.029C0.377226 254.029 0.211198 254.195 0.211198 254.4C0.211198 254.605 0.377226 254.771 0.582031 254.771L0.582031 254.029ZM0.582031 254.771L102.561 254.771L102.561 254.029L0.582031 254.029L0.582031 254.771Z" fill="url(#paint0_linear_463_1970)"/>
<path d="M0.582031 233.262C0.377226 233.262 0.211198 233.428 0.211198 233.633C0.211198 233.838 0.377226 234.004 0.582031 234.004L0.582031 233.262ZM0.582031 234.004L102.561 234.004L102.561 233.262L0.582031 233.262L0.582031 234.004Z" fill="url(#paint1_linear_463_1970)"/>
<line x1="0.582031" y1="212.866" x2="102.561" y2="212.867" stroke="url(#paint2_linear_463_1970)" stroke-width="0.741667"/>
<path d="M69.1863 290C69.1863 290.205 69.3523 290.371 69.5571 290.371C69.7619 290.371 69.928 290.205 69.928 290L69.1863 290ZM69.928 290L69.928 0.00836187L69.1863 0.00836177L69.1863 290L69.928 290Z" fill="url(#paint3_linear_463_1970)"/>
<path d="M48.4197 290C48.4197 290.205 48.5857 290.371 48.7905 290.371C48.9953 290.371 49.1614 290.205 49.1614 290L48.4197 290ZM49.1614 290L49.1614 0.00836187L48.4197 0.00836177L48.4197 290L49.1614 290Z" fill="url(#paint4_linear_463_1970)"/>
<path d="M27.6531 290C27.6531 290.205 27.8191 290.371 28.0239 290.371C28.2287 290.371 28.3948 290.205 28.3948 290L27.6531 290ZM28.3948 290L28.3948 0.00836187L27.6531 0.00836177L27.6531 290L28.3948 290Z" fill="url(#paint5_linear_463_1970)"/>
<defs>
<linearGradient id="paint0_linear_463_1970" x1="56.375" y1="255.271" x2="99.6053" y2="255.271" gradientUnits="userSpaceOnUse">
<stop stop-color="#E4C383"/>
<stop offset="1" stop-color="#FFFDEE"/>
</linearGradient>
<linearGradient id="paint1_linear_463_1970" x1="56.375" y1="234.504" x2="99.6053" y2="234.504" gradientUnits="userSpaceOnUse">
<stop stop-color="#E4C383"/>
<stop offset="1" stop-color="#FFFDEE"/>
</linearGradient>
<linearGradient id="paint2_linear_463_1970" x1="56.375" y1="213.737" x2="99.6053" y2="213.737" gradientUnits="userSpaceOnUse">
<stop stop-color="#E4C383"/>
<stop offset="1" stop-color="#FFFDEE"/>
</linearGradient>
<linearGradient id="paint3_linear_463_1970" x1="70.4282" y1="131.345" x2="70.4282" y2="8.4139" gradientUnits="userSpaceOnUse">
<stop stop-color="#E4C383"/>
<stop offset="1" stop-color="#FFFDEE"/>
</linearGradient>
<linearGradient id="paint4_linear_463_1970" x1="49.6616" y1="131.345" x2="49.6616" y2="8.4139" gradientUnits="userSpaceOnUse">
<stop stop-color="#E4C383"/>
<stop offset="1" stop-color="#FFFDEE"/>
</linearGradient>
<linearGradient id="paint5_linear_463_1970" x1="28.895" y1="131.345" x2="28.895" y2="8.4139" gradientUnits="userSpaceOnUse">
<stop stop-color="#E4C383"/>
<stop offset="1" stop-color="#FFFDEE"/>
</linearGradient>
</defs>
</svg>
