<svg width="51" height="39" viewBox="0 0 51 39" fill="none" xmlns="http://www.w3.org/2000/svg">
<rect width="51" height="39" rx="4" fill="#FFFAF0"/>
<path d="M37.8448 11.638H35.7414V10.5863C35.7414 9.74952 35.409 8.94699 34.8173 8.35528C34.2255 7.76357 33.423 7.43115 32.5862 7.43115H13.6552C12.8184 7.43115 12.0158 7.76357 11.4241 8.35528C10.8324 8.94699 10.5 9.74952 10.5 10.5863V23.207C10.5 24.0438 10.8324 24.8463 11.4241 25.4381C12.0158 26.0298 12.8184 26.3622 13.6552 26.3622H28.3793V27.4139C28.3793 28.2507 28.7117 29.0532 29.3034 29.645C29.8951 30.2367 30.6977 30.5691 31.5345 30.5691H37.8448C38.6816 30.5691 39.4842 30.2367 40.0759 29.645C40.6676 29.0532 41 28.2507 41 27.4139V14.7932C41 13.9564 40.6676 13.1539 40.0759 12.5622C39.4842 11.9705 38.6816 11.638 37.8448 11.638ZM13.6552 24.2587C13.3762 24.2587 13.1087 24.1479 12.9115 23.9507C12.7143 23.7535 12.6034 23.486 12.6034 23.207V10.5863C12.6034 10.3074 12.7143 10.0399 12.9115 9.84264C13.1087 9.64541 13.3762 9.5346 13.6552 9.5346H32.5862C32.8651 9.5346 33.1327 9.64541 33.3299 9.84264C33.5271 10.0399 33.6379 10.3074 33.6379 10.5863V11.638H31.5345C30.6977 11.638 29.8951 11.9705 29.3034 12.5622C28.7117 13.1539 28.3793 13.9564 28.3793 14.7932V24.2587H13.6552ZM38.8966 27.4139C38.8966 27.6928 38.7857 27.9604 38.5885 28.1576C38.3913 28.3548 38.1238 28.4656 37.8448 28.4656H31.5345C31.2555 28.4656 30.988 28.3548 30.7908 28.1576C30.5936 27.9604 30.4828 27.6928 30.4828 27.4139V14.7932C30.4828 14.5143 30.5936 14.2468 30.7908 14.0495C30.988 13.8523 31.2555 13.7415 31.5345 13.7415H37.8448C38.1238 13.7415 38.3913 13.8523 38.5885 14.0495C38.7857 14.2468 38.8966 14.5143 38.8966 14.7932V27.4139ZM26.2759 29.5174C26.2759 29.7963 26.1651 30.0638 25.9678 30.261C25.7706 30.4583 25.5031 30.5691 25.2241 30.5691H19.9655C19.6866 30.5691 19.4191 30.4583 19.2218 30.261C19.0246 30.0638 18.9138 29.7963 18.9138 29.5174C18.9138 29.2384 19.0246 28.9709 19.2218 28.7737C19.4191 28.5764 19.6866 28.4656 19.9655 28.4656H25.2241C25.5031 28.4656 25.7706 28.5764 25.9678 28.7737C26.1651 28.9709 26.2759 29.2384 26.2759 29.5174ZM36.7931 16.8967C36.7931 17.1756 36.6823 17.4431 36.4851 17.6404C36.2878 17.8376 36.0203 17.9484 35.7414 17.9484H33.6379C33.359 17.9484 33.0915 17.8376 32.8943 17.6404C32.697 17.4431 32.5862 17.1756 32.5862 16.8967C32.5862 16.6177 32.697 16.3502 32.8943 16.153C33.0915 15.9558 33.359 15.8449 33.6379 15.8449H35.7414C36.0203 15.8449 36.2878 15.9558 36.4851 16.153C36.6823 16.3502 36.7931 16.6177 36.7931 16.8967Z" fill="#DAAB47"/>
</svg>
