<svg width="147" height="48" viewBox="0 0 147 48" fill="none" xmlns="http://www.w3.org/2000/svg">
<g clip-path="url(#clip0_463_2211)">
<path d="M134.529 0H15.8934C15.4614 0 15.0342 0 14.5987 0C14.242 0 13.8831 0.0117699 13.5194 0.0176548C12.7275 0.0267173 11.9374 0.0959667 11.156 0.224804C10.3779 0.356952 9.62401 0.605324 8.91972 0.961597C8.21209 1.32261 7.56551 1.79245 7.00359 2.35397C6.44115 2.91075 5.97218 3.55459 5.61474 4.26069C5.25666 4.96422 5.00819 5.71835 4.87795 6.49696C4.7465 7.27495 4.67566 8.06197 4.66609 8.85093C4.6555 9.21109 4.65432 9.5736 4.64844 9.93376V37.1127C4.64844 37.4776 4.6555 37.8318 4.66609 38.1967C4.67566 38.9857 4.74649 39.7727 4.87795 40.5507C5.00794 41.3293 5.25642 42.0835 5.61474 42.787C5.97165 43.492 6.44071 44.1343 7.00359 44.689C7.56168 45.2503 8.20623 45.7184 8.91266 46.0755C9.61693 46.4328 10.3707 46.6827 11.1489 46.817C11.9304 46.9451 12.7204 47.0148 13.5123 47.0253C13.8772 47.0335 14.235 47.0382 14.5963 47.0382C15.0271 47.0382 15.4543 47.0382 15.891 47.0382H134.531C134.955 47.0382 135.386 47.0382 135.809 47.0382C136.168 47.0382 136.537 47.0382 136.897 47.0253C137.686 47.0151 138.473 46.9454 139.251 46.817C140.033 46.6823 140.792 46.4324 141.501 46.0755C142.207 45.7181 142.851 45.25 143.408 44.689C143.969 44.1332 144.44 43.4925 144.802 42.7905C145.157 42.0865 145.403 41.3324 145.531 40.5542C145.663 39.7761 145.736 38.9893 145.75 38.2002C145.75 37.8354 145.75 37.4811 145.75 37.1162C145.76 36.689 145.76 36.2641 145.76 35.8298V11.2143C145.76 10.7835 145.76 10.3563 145.75 9.93023C145.75 9.57007 145.75 9.20756 145.75 8.8474C145.736 8.05838 145.663 7.27154 145.531 6.49343C145.403 5.71528 145.157 4.96122 144.802 4.25716C144.074 2.84121 142.922 1.6887 141.506 0.961597C140.797 0.605679 140.038 0.357359 139.256 0.224804C138.477 0.0952672 137.69 0.0256207 136.902 0.0164778C136.543 0.0164778 136.174 0.00353096 135.814 0.00117699C135.39 0.00117699 134.96 0.00117699 134.536 0.00117699L134.529 0Z" fill="white"/>
<path d="M14.6056 46.0109C14.2466 46.0109 13.8994 46.0109 13.5392 45.998C12.8007 45.9884 12.0638 45.9243 11.3347 45.8061C10.6551 45.6892 9.9966 45.4719 9.38093 45.1611C8.77115 44.8534 8.2148 44.4496 7.73315 43.9653C7.24434 43.4857 6.83758 42.929 6.5291 42.3175C6.21745 41.7056 6.00151 41.0494 5.88882 40.372C5.76802 39.6443 5.70271 38.9086 5.69344 38.171C5.68637 37.9227 5.67578 37.0976 5.67578 37.0976V9.93279C5.67578 9.93279 5.68637 9.11949 5.69344 8.88057C5.70251 8.14301 5.76783 7.40722 5.88882 6.6796C6.00192 5.99895 6.21865 5.33964 6.53145 4.72463C6.83873 4.11426 7.24298 3.55778 7.72844 3.07685C8.21306 2.59382 8.77022 2.18955 9.37975 1.87868C9.99424 1.56935 10.6516 1.35392 11.33 1.23958C12.0613 1.11988 12.8006 1.05496 13.5416 1.04537L14.6009 1.03125H135.802L136.879 1.04655C137.613 1.05508 138.346 1.11882 139.071 1.23722C139.756 1.35311 140.42 1.57008 141.041 1.88103C142.264 2.50936 143.26 3.50446 143.889 4.72698C144.196 5.33793 144.409 5.99192 144.52 6.66666C144.642 7.40021 144.711 8.14173 144.725 8.88527C144.725 9.21836 144.725 9.57617 144.725 9.93161C144.734 10.373 144.734 10.792 144.734 11.2157V35.8265C144.734 36.2537 144.734 36.6704 144.725 37.0906C144.725 37.4731 144.725 37.8238 144.725 38.184C144.711 38.9145 144.644 39.6431 144.524 40.3638C144.414 41.0474 144.199 41.71 143.887 42.3281C143.253 43.5436 142.258 44.5329 141.039 45.16C140.419 45.4727 139.756 45.6905 139.072 45.8061C138.343 45.9249 137.606 45.989 136.867 45.998C136.514 46.0058 136.161 46.0101 135.808 46.0109H134.53H14.6056Z" fill="#1F1F1F"/>
<path d="M33.8372 23.8757C33.8504 22.8928 34.1122 21.9293 34.5983 21.075C35.0845 20.2206 35.779 19.5033 36.6173 18.99C36.0835 18.2304 35.3801 17.6056 34.563 17.1649C33.7458 16.7243 32.8373 16.4799 31.9093 16.4512C29.9285 16.2441 28.0076 17.6282 26.9978 17.6282C25.9691 17.6282 24.4143 16.4665 22.7406 16.5007C21.6588 16.5349 20.6042 16.8485 19.6794 17.4109C18.7546 17.9733 17.9911 18.7655 17.463 19.7103C15.1856 23.652 16.8887 29.4428 19.0743 32.6277C20.1677 34.1872 21.4459 35.9233 23.1184 35.8668C24.7544 35.7997 25.3665 34.8263 27.3415 34.8263C29.2988 34.8263 29.872 35.8668 31.5786 35.828C33.3347 35.7997 34.441 34.2614 35.4956 32.6878C36.2812 31.5769 36.8858 30.3486 37.287 29.0485C36.2672 28.6208 35.3962 27.902 34.7826 26.9819C34.169 26.0619 33.8402 24.9815 33.8372 23.8757ZM30.6194 14.3539C31.5766 13.2085 32.0483 11.7345 31.9341 10.2462C30.4723 10.399 29.1216 11.096 28.1501 12.1988C27.6759 12.7367 27.3127 13.363 27.0813 14.0416C26.8498 14.7203 26.7546 15.4379 26.8012 16.1535C27.5325 16.1613 28.2561 16.0033 28.9176 15.6914C29.5791 15.3796 30.1613 14.9218 30.6205 14.3527L30.6194 14.3539ZM54.5287 31.9192H48.9439L47.608 35.868H45.2422L50.5269 21.2569H52.9844L58.2738 35.868H55.8681L54.5287 31.9192ZM49.5229 30.0972H53.9496L51.7663 23.6873H51.7051L49.5229 30.0972ZM69.6988 30.5433C69.6988 33.8541 67.9216 35.981 65.2416 35.981C64.5625 36.017 63.887 35.8611 63.2923 35.5312C62.6976 35.2013 62.2078 34.7107 61.8789 34.1154H61.8283V39.3919H59.6356V25.2151H61.7542V26.9864H61.7942C62.1383 26.3947 62.6362 25.9072 63.2351 25.5756C63.834 25.244 64.5115 25.0808 65.1957 25.1033C67.9027 25.1033 69.6941 27.2407 69.6941 30.5421L69.6988 30.5433ZM67.4449 30.5433C67.4449 28.3871 66.3279 26.9688 64.6201 26.9688C62.9453 26.9688 61.8177 28.4165 61.8177 30.5433C61.8177 32.6901 62.9441 34.1272 64.6201 34.1272C66.3256 34.1272 67.4449 32.7148 67.4449 30.5433ZM81.451 30.5433C81.451 33.8541 79.6749 35.981 76.9938 35.981C76.3155 36.0161 75.6409 35.8598 75.0472 35.5299C74.4534 35.2 73.9644 34.7099 73.6358 34.1154H73.5852V39.3919H71.3925V25.2151H73.5111V26.9864H73.5511C73.8952 26.3947 74.3932 25.9072 74.992 25.5756C75.5909 25.244 76.2684 25.0808 76.9526 25.1033C79.6596 25.1033 81.451 27.2418 81.451 30.5433ZM79.1971 30.5433C79.1971 28.3871 78.079 26.9688 76.3723 26.9688C74.6975 26.9688 73.5699 28.4165 73.5699 30.5433C73.5699 32.6901 74.6963 34.1272 76.3723 34.1272C78.0778 34.1272 79.1971 32.7148 79.1971 30.5433ZM89.2203 31.798C89.391 33.2468 90.8033 34.1978 92.7265 34.1978C94.5744 34.1978 95.9044 33.2468 95.9044 31.9404C95.9044 30.8058 95.1029 30.1266 93.2044 29.6617L91.3059 29.2051C88.6153 28.5565 87.3665 27.3019 87.3665 25.2657C87.3665 22.7446 89.5699 21.0132 92.6971 21.0132C95.7926 21.0132 97.9159 22.7446 97.9865 25.2657H95.7738C95.6407 23.8074 94.4332 22.927 92.6665 22.927C90.8999 22.927 89.6923 23.818 89.6923 25.1139C89.6923 26.1472 90.4644 26.7546 92.3523 27.2195L93.9659 27.6149C96.9719 28.3211 98.2207 29.5275 98.2207 31.665C98.2207 34.3991 96.0374 36.1104 92.5653 36.1104C89.3156 36.1104 87.1229 34.4379 86.9805 31.7956L89.2203 31.798ZM102.952 22.6987V25.2198H104.984V26.9476H102.952V32.8208C102.952 33.7329 103.359 34.1578 104.247 34.1578C104.488 34.1536 104.729 34.1367 104.968 34.1072V35.8291C104.567 35.904 104.159 35.9379 103.75 35.9303C101.588 35.9303 100.744 35.1206 100.744 33.0538V26.9476H99.1905V25.2151H100.744V22.6987H102.952ZM106.159 30.5468C106.159 27.1948 108.139 25.0891 111.221 25.0891C114.302 25.0891 116.287 27.1948 116.287 30.5468C116.287 33.8989 114.334 35.9986 111.226 35.9986C108.119 35.9986 106.161 33.9036 106.161 30.5421L106.159 30.5468ZM114.058 30.5468C114.058 28.2482 112.999 26.8899 111.225 26.8899C109.452 26.8899 108.393 28.2576 108.393 30.5468C108.393 32.8549 109.453 34.2014 111.225 34.2014C112.998 34.2014 114.059 32.8514 114.059 30.5421L114.058 30.5468ZM118.1 25.2198H120.193V27.0335H120.243C120.386 26.4666 120.719 25.966 121.187 25.6156C121.654 25.2652 122.229 25.0864 122.813 25.1091C123.065 25.1082 123.317 25.1354 123.564 25.1904V27.236C123.245 27.1389 122.912 27.0943 122.578 27.1041C122.26 27.0908 121.943 27.1464 121.649 27.2671C121.354 27.3879 121.089 27.571 120.872 27.8038C120.655 28.0366 120.491 28.3136 120.391 28.6159C120.292 28.9181 120.258 29.2383 120.294 29.5546V35.8727H118.101L118.1 25.2198ZM133.672 32.7442C133.376 34.678 131.488 36.0057 129.072 36.0057C125.965 36.0057 124.036 33.9295 124.036 30.5986C124.036 27.2677 125.975 25.0903 128.979 25.0903C131.934 25.0903 133.793 27.1147 133.793 30.3444V31.0941H126.248V31.2259C126.214 31.6185 126.263 32.014 126.394 32.3859C126.524 32.7579 126.732 33.0979 127.004 33.3833C127.275 33.6688 127.605 33.8931 127.97 34.0415C128.335 34.1898 128.727 34.2588 129.121 34.2437C129.64 34.2935 130.16 34.1746 130.606 33.9046C131.051 33.6347 131.397 33.2281 131.593 32.7454L133.672 32.7442ZM126.257 29.5664H131.596C131.616 29.2131 131.563 28.8595 131.439 28.528C131.316 28.1964 131.125 27.894 130.879 27.6397C130.633 27.3854 130.337 27.1848 130.009 27.0505C129.682 26.9162 129.33 26.8511 128.977 26.8593C128.62 26.8567 128.266 26.9248 127.935 27.0597C127.605 27.1947 127.305 27.3938 127.052 27.6455C126.799 27.8972 126.598 28.1966 126.462 28.5263C126.325 28.856 126.256 29.2095 126.257 29.5664ZM49.2475 10.2591C49.7065 10.2256 50.1672 10.2943 50.5963 10.4604C51.0255 10.6264 51.4125 10.8857 51.7293 11.2194C52.0461 11.5532 52.285 11.9531 52.4285 12.3903C52.5721 12.8275 52.6169 13.2911 52.5596 13.7477C52.5596 15.991 51.3437 17.2787 49.2475 17.2787H46.7052V10.2591H49.2475ZM47.7986 16.2865H49.1263C49.4542 16.3065 49.7824 16.2532 50.0872 16.1304C50.3919 16.0076 50.6653 15.8184 50.8877 15.5766C51.11 15.3347 51.2756 15.0463 51.3724 14.7324C51.4692 14.4185 51.4948 14.0869 51.4473 13.7618C51.4914 13.438 51.4633 13.1085 51.3651 12.7968C51.2668 12.4851 51.1008 12.199 50.879 11.9591C50.6571 11.7191 50.3849 11.5312 50.0819 11.4089C49.7789 11.2865 49.4526 11.2327 49.1263 11.2513H47.7986V16.2865ZM53.8013 14.6281C53.7683 14.2792 53.8085 13.9273 53.9194 13.5949C54.0303 13.2624 54.2094 12.9568 54.4452 12.6976C54.6811 12.4384 54.9685 12.2313 55.289 12.0896C55.6095 11.9479 55.9561 11.8747 56.3065 11.8747C56.6569 11.8747 57.0035 11.9479 57.324 12.0896C57.6445 12.2313 57.9319 12.4384 58.1677 12.6976C58.4036 12.9568 58.5827 13.2624 58.6936 13.5949C58.8045 13.9273 58.8447 14.2792 58.8117 14.6281C58.8447 14.977 58.8045 15.3289 58.6936 15.6613C58.5827 15.9938 58.4036 16.2994 58.1677 16.5586C57.9319 16.8178 57.6445 17.0248 57.324 17.1665C57.0035 17.3082 56.6569 17.3814 56.3065 17.3814C55.9561 17.3814 55.6095 17.3082 55.289 17.1665C54.9685 17.0248 54.6811 16.8178 54.4452 16.5586C54.2094 16.2994 54.0303 15.9938 53.9194 15.6613C53.8085 15.3289 53.7683 14.977 53.8013 14.6281ZM57.7336 14.6281C57.7336 13.4794 57.2157 12.8085 56.3083 12.8085C55.4008 12.8085 54.8841 13.4805 54.8841 14.6281C54.8841 15.7757 55.3973 16.4524 56.3083 16.4524C57.2192 16.4524 57.73 15.7815 57.73 14.6281H57.7336ZM65.4664 17.2845H64.3788L63.2807 13.3828H63.1983L62.1049 17.2845H61.0256L59.5614 11.9881H60.6207L61.5729 16.0311H61.6518L62.744 11.9881H63.7503L64.8426 16.0311H64.925L65.8666 11.9881H66.9152L65.4664 17.2845ZM68.157 11.9881H69.1668V12.8297H69.2457C69.3795 12.5275 69.604 12.2746 69.8881 12.1058C70.1722 11.9371 70.5018 11.861 70.8311 11.8881C71.0891 11.8684 71.3483 11.907 71.5893 12.0011C71.8304 12.0951 72.0473 12.2422 72.2238 12.4314C72.4003 12.6206 72.5321 12.8471 72.6092 13.0941C72.6864 13.3411 72.707 13.6023 72.6695 13.8583V17.2845H71.6185V14.1067C71.6185 13.2557 71.2477 12.832 70.4721 12.832C70.2968 12.8236 70.1218 12.8532 69.959 12.9187C69.7962 12.9843 69.6495 13.0843 69.529 13.2118C69.4085 13.3394 69.317 13.4915 69.2608 13.6577C69.2045 13.824 69.1849 14.0004 69.2033 14.1749V17.2845H68.1546L68.157 11.9881ZM74.3397 9.92015H75.3848V17.2845H74.3361L74.3397 9.92015ZM76.8455 14.6352C76.8134 14.2867 76.8543 13.9354 76.9657 13.6037C77.077 13.272 77.2563 12.9672 77.4922 12.7086C77.728 12.4501 78.0151 12.2436 78.3352 12.1024C78.6553 11.9611 79.0014 11.8881 79.3513 11.8881C79.7012 11.8881 80.0472 11.9611 80.3673 12.1024C80.6875 12.2436 80.9746 12.4501 81.2104 12.7086C81.4462 12.9672 81.6255 13.272 81.7369 13.6037C81.8482 13.9354 81.8891 14.2867 81.8571 14.6352C81.8891 14.9836 81.8482 15.3349 81.7369 15.6666C81.6255 15.9983 81.4462 16.3031 81.2104 16.5617C80.9746 16.8202 80.6875 17.0267 80.3673 17.1679C80.0472 17.3092 79.7012 17.3822 79.3513 17.3822C79.0014 17.3822 78.6553 17.3092 78.3352 17.1679C78.0151 17.0267 77.728 16.8202 77.4922 16.5617C77.2563 16.3031 77.077 15.9983 76.9657 15.6666C76.8543 15.3349 76.8134 14.9836 76.8455 14.6352ZM80.7778 14.6352C80.7778 13.4864 80.2599 12.8155 79.3525 12.8155C78.445 12.8155 77.9283 13.4876 77.9283 14.6352C77.9283 15.7827 78.4415 16.4595 79.3525 16.4595C80.2634 16.4595 80.7778 15.7815 80.7778 14.6281V14.6352ZM82.9611 15.7886C82.9611 14.8352 83.6673 14.2844 84.9373 14.2067L86.3767 14.1243V13.6594C86.3767 13.1004 86.006 12.7838 85.2892 12.7838C84.7007 12.7838 84.2981 12.998 84.1816 13.3722H83.1647C83.2718 12.4624 84.1298 11.8787 85.3351 11.8787C86.6674 11.8787 87.4183 12.5401 87.4183 13.6594V17.2845H86.4085V16.5395H86.3308C86.162 16.8069 85.9254 17.0247 85.6451 17.1709C85.3647 17.3171 85.0506 17.3863 84.7348 17.3716C84.5125 17.3943 84.288 17.3702 84.0756 17.301C83.8631 17.2317 83.6675 17.1188 83.5013 16.9696C83.335 16.8203 83.2019 16.6379 83.1102 16.4341C83.0186 16.2303 82.9706 16.0097 82.9693 15.7862L82.9611 15.7886ZM86.3743 15.3355V14.8929L85.0797 14.9753C84.3476 15.0236 84.0204 15.2719 84.0204 15.7392C84.0204 16.2064 84.4347 16.4936 85.0055 16.4936C85.1724 16.5107 85.3411 16.4941 85.5014 16.4448C85.6618 16.3954 85.8106 16.3142 85.939 16.2062C86.0673 16.0981 86.1727 15.9654 86.2487 15.8158C86.3247 15.6662 86.3698 15.5028 86.3814 15.3355H86.3743ZM88.7966 14.6293C88.7966 12.9556 89.6593 11.8951 91.0023 11.8951C91.334 11.8797 91.6633 11.959 91.9517 12.1236C92.2401 12.2882 92.4758 12.5315 92.6312 12.8249H92.7101V9.91309H93.7588V17.2845H92.7536V16.4477H92.6712C92.5038 16.739 92.2599 16.9791 91.966 17.1419C91.6721 17.3047 91.3392 17.3842 91.0034 17.3716C89.6523 17.3716 88.7978 16.3124 88.7978 14.6328L88.7966 14.6293ZM89.8794 14.6293C89.8794 15.7533 90.4102 16.4289 91.2989 16.4289C92.1875 16.4289 92.7289 15.7427 92.7289 14.6328C92.7289 13.5229 92.1769 12.8332 91.2989 12.8332C90.4208 12.8332 89.8806 13.5182 89.8806 14.6281L89.8794 14.6293ZM98.0959 14.6293C98.063 14.2804 98.1032 13.9285 98.2141 13.596C98.325 13.2636 98.5041 12.958 98.7399 12.6988C98.9758 12.4396 99.2631 12.2325 99.5836 12.0908C99.9042 11.9491 100.251 11.8759 100.601 11.8759C100.952 11.8759 101.298 11.9491 101.619 12.0908C101.939 12.2325 102.227 12.4396 102.462 12.6988C102.698 12.958 102.877 13.2636 102.988 13.596C103.099 13.9285 103.139 14.2804 103.106 14.6293C103.139 14.9781 103.099 15.3301 102.988 15.6625C102.877 15.9949 102.698 16.3005 102.462 16.5597C102.227 16.8189 101.939 17.026 101.619 17.1677C101.298 17.3094 100.952 17.3826 100.601 17.3826C100.251 17.3826 99.9042 17.3094 99.5836 17.1677C99.2631 17.026 98.9758 16.8189 98.7399 16.5597C98.5041 16.3005 98.325 15.9949 98.2141 15.6625C98.1032 15.3301 98.063 14.9781 98.0959 14.6293ZM102.028 14.6293C102.028 13.4805 101.51 12.8096 100.603 12.8096C99.6955 12.8096 99.1788 13.4817 99.1788 14.6293C99.1788 15.7768 99.6919 16.4536 100.603 16.4536C101.514 16.4536 102.028 15.7815 102.028 14.6281V14.6293ZM104.513 11.9822H105.523V12.8238H105.602C105.735 12.5216 105.96 12.2687 106.244 12.0999C106.528 11.9312 106.858 11.8551 107.187 11.8822C107.445 11.8625 107.704 11.9011 107.945 11.9952C108.186 12.0892 108.403 12.2363 108.58 12.4255C108.756 12.6147 108.888 12.8412 108.965 13.0882C109.042 13.3352 109.063 13.5964 109.025 13.8525V17.2845H107.977V14.1067C107.977 13.2557 107.606 12.832 106.83 12.832C106.655 12.8236 106.48 12.8532 106.317 12.9187C106.154 12.9843 106.008 13.0843 105.887 13.2118C105.767 13.3394 105.675 13.4915 105.619 13.6577C105.563 13.824 105.543 14.0004 105.562 14.1749V17.2845H104.513V11.9822ZM114.949 10.6628V12.0058H116.1V12.8862H114.949V15.6109C114.949 16.1664 115.179 16.4089 115.7 16.4089C115.834 16.4083 115.967 16.4 116.1 16.3842V17.2551C115.912 17.2886 115.721 17.3063 115.529 17.3081C114.363 17.3081 113.899 16.8985 113.899 15.878V12.8862H113.055V12.0058H113.899V10.6628H114.949ZM117.533 9.91309H118.572V12.8332H118.654C118.794 12.5279 119.025 12.273 119.314 12.1033C119.604 11.9336 119.939 11.8572 120.274 11.8845C120.531 11.8702 120.787 11.9127 121.026 12.009C121.264 12.1053 121.479 12.253 121.653 12.4416C121.828 12.6302 121.959 12.8551 122.037 13.1002C122.115 13.3453 122.138 13.6046 122.104 13.8595V17.2845H121.052V14.1173C121.052 13.271 120.656 12.8426 119.916 12.8426C119.736 12.8279 119.555 12.8526 119.386 12.9149C119.217 12.9773 119.063 13.0759 118.936 13.2038C118.809 13.3317 118.711 13.4858 118.65 13.6553C118.588 13.8249 118.565 14.0059 118.58 14.1855V17.2845H117.533V9.91309ZM128.217 15.8486C128.074 16.333 127.764 16.7515 127.344 17.0311C126.923 17.3107 126.417 17.4338 125.915 17.3787C125.566 17.3884 125.218 17.322 124.897 17.184C124.576 17.046 124.289 16.8398 124.055 16.5796C123.822 16.3195 123.648 16.0117 123.545 15.6775C123.443 15.3434 123.414 14.9909 123.461 14.6446C123.415 14.2971 123.444 13.9438 123.546 13.6085C123.648 13.2732 123.822 12.9638 124.054 12.7013C124.286 12.4387 124.572 12.2292 124.892 12.0869C125.213 11.9445 125.56 11.8727 125.91 11.8763C127.389 11.8763 128.281 12.8838 128.281 14.5469V14.9117H124.53V14.9706C124.514 15.1651 124.538 15.3609 124.602 15.5454C124.666 15.7299 124.767 15.899 124.9 16.042C125.033 16.1849 125.195 16.2985 125.374 16.3754C125.554 16.4524 125.747 16.4911 125.942 16.4889C126.193 16.519 126.447 16.474 126.672 16.3596C126.897 16.2452 127.083 16.0665 127.206 15.8463L128.217 15.8486ZM124.53 14.1408H127.213C127.226 13.9627 127.202 13.7839 127.142 13.6158C127.082 13.4478 126.987 13.2942 126.864 13.1649C126.74 13.0356 126.592 12.9336 126.427 12.8653C126.262 12.797 126.084 12.764 125.906 12.7685C125.725 12.7659 125.545 12.7997 125.377 12.8677C125.209 12.9357 125.057 13.0367 124.928 13.1646C124.8 13.2925 124.699 13.4447 124.63 13.6124C124.562 13.7801 124.528 13.9597 124.53 14.1408Z" fill="white"/>
</g>
<defs>
<clipPath id="clip0_463_2211">
<rect width="141.117" height="47.0394" fill="white" transform="translate(4.64844)"/>
</clipPath>
</defs>
</svg>
