<svg width="33" height="25" viewBox="0 0 33 25" fill="none" xmlns="http://www.w3.org/2000/svg">
<g clip-path="url(#clip0_463_2155)">
<path d="M25.5781 0.00195376H7.59305C7.15721 0.00168422 6.72559 0.0872967 6.32285 0.253899C5.9201 0.420502 5.55414 0.664829 5.24586 0.97292C4.93757 1.28101 4.69302 1.64683 4.52617 2.04947C4.35932 2.45211 4.27344 2.88368 4.27344 3.31952V21.3045C4.27344 21.7404 4.35932 22.1719 4.52617 22.5746C4.69302 22.9772 4.93757 23.343 5.24586 23.6511C5.55414 23.9592 5.9201 24.2036 6.32285 24.3702C6.72559 24.5368 7.15721 24.6224 7.59305 24.6221H16.4635L16.4789 15.8245H14.1923C14.0495 15.8245 13.9126 15.7679 13.8115 15.6672C13.7103 15.5664 13.6532 15.4297 13.6527 15.287L13.6414 12.4505C13.6411 12.3795 13.6549 12.3091 13.6819 12.2434C13.7089 12.1777 13.7486 12.118 13.7987 12.0676C13.8489 12.0173 13.9084 11.9774 13.974 11.9501C14.0396 11.9229 14.11 11.9089 14.181 11.9089H16.4625V9.16988C16.4625 5.98978 18.4044 4.25816 21.2418 4.25816H23.5695C23.7126 4.25816 23.8498 4.31501 23.951 4.4162C24.0522 4.5174 24.1091 4.65464 24.1091 4.79775V7.18899C24.1091 7.33192 24.0524 7.46901 23.9514 7.57017C23.8504 7.67134 23.7134 7.72831 23.5705 7.72858H22.1415C20.6028 7.72858 20.295 8.46205 20.295 9.53713V11.9099H23.6803C23.7565 11.9099 23.8318 11.9261 23.9013 11.9574C23.9708 11.9887 24.0329 12.0343 24.0835 12.0913C24.134 12.1482 24.172 12.2153 24.1948 12.288C24.2176 12.3607 24.2247 12.4374 24.2158 12.5131L23.8793 15.3495C23.8637 15.4807 23.8006 15.6015 23.7019 15.6892C23.6033 15.777 23.4758 15.8254 23.3438 15.8255H20.3155L20.3001 24.6221H25.5781C26.4576 24.6216 27.3009 24.2718 27.9226 23.6497C28.5443 23.0276 28.8936 22.1841 28.8936 21.3045V3.31952C28.8936 2.44 28.5443 1.59648 27.9226 0.974371C27.3009 0.352266 26.4576 0.00249768 25.5781 0.00195376Z" fill="#1F1F1F"/>
</g>
<defs>
<clipPath id="clip0_463_2155">
<rect width="32.8269" height="24.6201" fill="white" transform="translate(0.171875)"/>
</clipPath>
</defs>
</svg>
