<svg width="159" height="48" viewBox="0 0 159 48" fill="none" xmlns="http://www.w3.org/2000/svg">
<g clip-path="url(#clip0_463_2189)">
<path d="M152.832 47.0394H6.32872C4.77304 47.0329 3.28324 46.4106 2.18507 45.3087C1.08691 44.2068 0.469737 42.7149 0.468506 41.1592L0.468506 5.88493C0.468492 4.32842 1.08512 2.8353 2.18341 1.73237C3.28171 0.629439 4.77222 0.00653733 6.32872 0L152.832 0C154.388 0.00653733 155.879 0.629439 156.977 1.73237C158.075 2.8353 158.692 4.32842 158.692 5.88493V41.1592C158.692 42.7157 158.075 44.2088 156.977 45.3117C155.879 46.4147 154.388 47.0376 152.832 47.0441" fill="#1F1F1F"/>
<path d="M152.832 0H6.32872C4.77222 0.00653733 3.28171 0.629439 2.18341 1.73237C1.08512 2.8353 0.468492 4.32842 0.468506 5.88493L0.468506 41.1592C0.468492 42.7157 1.08512 44.2088 2.18341 45.3117C3.28171 46.4147 4.77222 47.0376 6.32872 47.0441H152.832C154.388 47.0376 155.879 46.4147 156.977 45.3117C158.075 44.2088 158.692 42.7157 158.692 41.1592V5.88493C158.692 4.32842 158.075 2.8353 156.977 1.73237C155.879 0.629439 154.388 0.00653733 152.832 0ZM152.832 0.941588C154.14 0.945329 155.393 1.46802 156.315 2.39487C157.238 3.32173 157.756 4.57697 157.754 5.88493V41.1592C157.756 42.4671 157.238 43.7224 156.315 44.6492C155.393 45.5761 154.14 46.0988 152.832 46.1025H6.32872C5.02195 46.096 3.77093 45.5723 2.84922 44.6459C1.9275 43.7196 1.41008 42.466 1.41009 41.1592V5.88493C1.40822 4.57758 1.92504 3.32287 2.84715 2.39612C3.76927 1.46937 5.02137 0.946263 6.32872 0.941588H152.832Z" fill="white"/>
<path d="M56.0546 12.0481C56.0755 12.4793 56.0087 12.9103 55.8582 13.3149C55.7077 13.7196 55.4766 14.0894 55.1789 14.4021C54.8454 14.749 54.4423 15.0215 53.996 15.2016C53.5498 15.3817 53.0705 15.4654 52.5896 15.4473C52.1053 15.4473 51.6258 15.3519 51.1784 15.1666C50.731 14.9813 50.3245 14.7096 49.9821 14.3672C49.6397 14.0248 49.3681 13.6183 49.1828 13.1709C48.9975 12.7235 48.9021 12.244 48.9021 11.7598C48.9021 11.2755 48.9975 10.796 49.1828 10.3486C49.3681 9.90124 49.6397 9.49473 49.9821 9.15232C50.3245 8.8099 50.731 8.53828 51.1784 8.35296C51.6258 8.16765 52.1053 8.07228 52.5896 8.07228C53.087 8.07102 53.5793 8.17198 54.0361 8.36888C54.4603 8.54127 54.8378 8.81147 55.1377 9.15745L54.5186 9.7789C54.2828 9.50083 53.9861 9.28074 53.6516 9.13563C53.3171 8.99053 52.9538 8.92429 52.5896 8.94207C52.1269 8.94231 51.6713 9.05621 51.2629 9.27376C50.8545 9.49131 50.5059 9.80585 50.2475 10.1897C49.9892 10.5736 49.8291 11.015 49.7814 11.4753C49.7336 11.9355 49.7996 12.4004 49.9736 12.8292C50.1476 13.2579 50.4244 13.6373 50.7794 13.9341C51.1344 14.2309 51.5568 14.4359 52.0096 14.5311C52.4624 14.6264 52.9317 14.6089 53.3761 14.4803C53.8206 14.3517 54.2267 14.1159 54.5587 13.7936C54.9196 13.4027 55.1284 12.8953 55.1471 12.3636H52.5872V11.5161H56.0004C56.0326 11.6921 56.0492 11.8705 56.0499 12.0493" fill="white"/>
<path d="M56.0493 12.0475H55.9316C55.953 12.4635 55.8896 12.8796 55.7451 13.2703C55.6006 13.661 55.3781 14.0182 55.0912 14.3203C54.7686 14.6557 54.3787 14.919 53.947 15.0929C53.5153 15.2667 53.0516 15.3472 52.5866 15.3289C51.6397 15.3289 50.7315 14.9528 50.062 14.2832C49.3924 13.6136 49.0162 12.7055 49.0162 11.7585C49.0162 10.8116 49.3924 9.90348 50.062 9.2339C50.7315 8.56433 51.6397 8.18816 52.5866 8.18816C53.0681 8.18657 53.5449 8.28392 53.9872 8.47417C54.395 8.63947 54.7579 8.89879 55.0465 9.23098L55.136 9.15447L55.0524 9.0709L54.4333 9.69235L54.5157 9.77475L54.6063 9.69941C54.3592 9.40828 54.0487 9.17766 53.6986 9.02525C53.3485 8.87284 52.9681 8.80269 52.5866 8.82021C52.1044 8.82017 51.6296 8.93864 51.204 9.16517C50.7783 9.39171 50.4149 9.71938 50.1456 10.1194C49.8763 10.5193 49.7094 10.9794 49.6596 11.459C49.6098 11.9386 49.6787 12.4231 49.8602 12.8698C50.0416 13.3166 50.33 13.7119 50.7001 14.021C51.0702 14.3301 51.5105 14.5435 51.9825 14.6425C52.4544 14.7415 52.9433 14.7229 53.4064 14.5885C53.8695 14.4542 54.2924 14.208 54.6381 13.8718C55.0194 13.4616 55.2411 12.9284 55.2631 12.3688L55.2737 12.2405H52.7031V11.6273H55.9987V11.5096L55.881 11.5308C55.9119 11.6997 55.9277 11.8711 55.9281 12.0428H56.1635C56.1631 11.8569 56.1462 11.6713 56.1128 11.4884L56.0952 11.3919H52.4642V12.4747H55.1419V12.3571L55.0241 12.3465C55.0069 12.8509 54.8094 13.3323 54.4675 13.7035C53.9667 14.186 53.2984 14.4555 52.6031 14.4555C51.9077 14.4555 51.2395 14.186 50.7387 13.7035C50.2403 13.176 49.9626 12.4778 49.9626 11.7521C49.9626 11.0263 50.2403 10.3281 50.7387 9.80063C50.9802 9.55864 51.2677 9.36751 51.5843 9.23854C51.9008 9.10956 52.2401 9.04535 52.5819 9.04971C52.929 9.0319 53.2757 9.09443 53.5948 9.23243C53.9139 9.37043 54.1968 9.58018 54.4216 9.84537L54.5039 9.94423L55.2101 9.23803L55.2866 9.16153L55.2172 9.07915C54.9059 8.71789 54.5135 8.43555 54.072 8.25526C53.6004 8.05199 53.0919 7.94782 52.5784 7.94923C51.5692 7.94923 50.6013 8.35014 49.8877 9.06376C49.1741 9.77737 48.7732 10.7452 48.7732 11.7544C48.7732 12.7636 49.1741 13.7315 49.8877 14.4451C50.6013 15.1587 51.5692 15.5596 52.5784 15.5596C53.0751 15.5777 53.5701 15.4907 54.0309 15.3043C54.4917 15.1179 54.908 14.8363 55.2525 14.478L55.1677 14.3968L55.2501 14.4803C55.559 14.1564 55.7989 13.7731 55.9553 13.3537C56.1117 12.9343 56.1813 12.4875 56.16 12.0404H56.0422M61.4564 9.09091H58.2468V11.3272H61.141V12.1758H58.2468V14.4121H61.4564V15.2795H57.3369V8.21758H61.4564V9.08502" fill="white"/>
<path d="M61.448 9.09846V8.98075H58.1206V11.4524H61.0148V12.0656H58.1206V14.5373H61.3301V15.1693H57.4462V8.34283H61.3301V9.09257H61.448H61.5656V8.10742H57.2107V15.4047H61.5656V14.3019H58.3559V12.301H61.2514V11.217H58.3559V9.21614H61.5656V9.09846H61.448ZM65.2673 15.2906H64.361V9.09846H62.3919V8.23102H67.2352V9.09846H65.266V15.2906" fill="white"/>
<path d="M65.255 15.2896V15.1719H64.4663V8.97974H62.4984V8.3477H67.1075V8.97974H65.1396V15.2896H65.2573H65.3749V9.21514H67.3441V8.1123H62.2654V9.21514H64.2333V15.4073H65.3749V15.2896H65.2573M70.7303 15.2896V8.22766H71.6354V15.2896H70.7303Z" fill="white"/>
<path d="M70.71 15.2901H70.8277V8.34587H71.4987V15.1724H70.7112L70.71 15.2901L70.7112 15.4078H71.734V8.11047H70.5935V15.4078H70.7112L70.71 15.2901ZM75.6333 15.2901H74.727V9.09797H72.7591V8.23053H77.6024V9.09797H75.6345L75.6333 15.2901Z" fill="white"/>
<path d="M75.6155 15.2949V15.1772H74.8269V8.98505H72.8589V8.35065H77.4669V8.9827H75.499V15.2949H75.6155H75.7343V9.22044H77.7035V8.11526H72.6248V9.21809H74.5927V15.4126H75.7343V15.2949H75.6155ZM82.2549 13.7919C82.5063 14.0435 82.8049 14.2431 83.1334 14.3792C83.462 14.5154 83.8141 14.5855 84.1698 14.5855C84.5254 14.5855 84.8777 14.5154 85.2062 14.3792C85.5348 14.2431 85.8334 14.0435 86.0848 13.7919C86.5889 13.2374 86.8681 12.515 86.8681 11.7657C86.8681 11.0164 86.5889 10.2939 86.0848 9.73949C85.8334 9.48788 85.5348 9.28829 85.2062 9.15211C84.8777 9.01593 84.5254 8.94585 84.1698 8.94585C83.8141 8.94585 83.462 9.01593 83.1334 9.15211C82.8049 9.28829 82.5063 9.48788 82.2549 9.73949C81.7515 10.2943 81.4727 11.0166 81.4727 11.7657C81.4727 12.5148 81.7515 13.2371 82.2549 13.7919ZM86.7545 14.3804C86.0691 15.0657 85.1395 15.4507 84.1703 15.4507C83.2011 15.4507 82.2717 15.0657 81.5863 14.3804C80.9193 13.672 80.5479 12.7357 80.5479 11.7627C80.5479 10.7897 80.9193 9.85346 81.5863 9.14512C81.9248 8.80509 82.3272 8.53527 82.7702 8.35116C83.2133 8.16705 83.6883 8.07227 84.168 8.07227C84.6478 8.07227 85.1229 8.16705 85.566 8.35116C86.009 8.53527 86.4113 8.80509 86.7497 9.14512C87.4181 9.85188 87.7905 10.7877 87.7905 11.7604C87.7905 12.7331 87.4181 13.6689 86.7497 14.3756L86.7545 14.3804Z" fill="white"/>
<path d="M82.2404 13.7865L82.1568 13.8689C82.4192 14.1323 82.7311 14.3412 83.0744 14.4838C83.4178 14.6264 83.7858 14.6998 84.1576 14.6998C84.5294 14.6998 84.8975 14.6264 85.2409 14.4838C85.5842 14.3412 85.8961 14.1323 86.1585 13.8689C86.6845 13.2924 86.9761 12.5402 86.9761 11.7598C86.9761 10.9794 86.6845 10.2271 86.1585 9.65061C85.8961 9.38727 85.5842 9.17832 85.2409 9.03575C84.8975 8.89318 84.5294 8.81979 84.1576 8.81979C83.7858 8.81979 83.4178 8.89318 83.0744 9.03575C82.7311 9.17832 82.4192 9.38727 82.1568 9.65061C81.6316 10.2275 81.3405 10.9796 81.3405 11.7598C81.3405 12.5399 81.6316 13.292 82.1568 13.8689L82.2404 13.7865L82.3239 13.7041C81.8432 13.1715 81.5772 12.4796 81.5772 11.7621C81.5772 11.0447 81.8432 10.3527 82.3239 9.82009C82.5643 9.57952 82.8498 9.38869 83.1641 9.25848C83.4783 9.12828 83.8151 9.06125 84.1553 9.06125C84.4954 9.06125 84.8323 9.12828 85.1465 9.25848C85.4607 9.38869 85.7462 9.57952 85.9867 9.82009C86.4678 10.3525 86.7341 11.0445 86.7341 11.7621C86.7341 12.4797 86.4678 13.1717 85.9867 13.7041C85.7462 13.9447 85.4607 14.1356 85.1465 14.2658C84.8323 14.396 84.4954 14.463 84.1553 14.463C83.8151 14.463 83.4783 14.396 83.1641 14.2658C82.8498 14.1356 82.5643 13.9447 82.3239 13.7041L82.2404 13.7865ZM86.74 14.375L86.6564 14.2938C85.9929 14.9559 85.0938 15.3278 84.1564 15.3278C83.2191 15.3278 82.32 14.9559 81.6565 14.2938C81.0109 13.6073 80.6515 12.7004 80.6515 11.758C80.6515 10.8156 81.0109 9.90871 81.6565 9.22219C81.9844 8.89407 82.3738 8.63377 82.8023 8.45619C83.2308 8.2786 83.6903 8.18719 84.1541 8.18719C84.618 8.18719 85.0773 8.2786 85.5058 8.45619C85.9344 8.63377 86.3237 8.89407 86.6516 9.22219C87.297 9.90669 87.6565 10.8119 87.6565 11.7527C87.6565 12.6935 87.297 13.5987 86.6516 14.2832L86.7364 14.3821L86.8212 14.4633C87.5107 13.7346 87.8949 12.7695 87.8949 11.7662C87.8949 10.763 87.5107 9.79788 86.8212 9.06917C86.4717 8.71794 86.0563 8.43921 85.5988 8.24902C85.1413 8.05883 84.6507 7.96094 84.1553 7.96094C83.6598 7.96094 83.1693 8.05883 82.7118 8.24902C82.2543 8.43921 81.8388 8.71794 81.4894 9.06917C80.8011 9.79966 80.4177 10.7655 80.4177 11.7692C80.4177 12.7729 80.8011 13.7387 81.4894 14.4692C81.8397 14.8197 82.2557 15.0978 82.7135 15.2875C83.1713 15.4773 83.662 15.5749 84.1576 15.5749C84.6532 15.5749 85.144 15.4773 85.6018 15.2875C86.0596 15.0978 86.4756 14.8197 86.8259 14.4692L86.74 14.375ZM89.0491 15.2872V8.22528H90.152L93.5771 13.7171H93.6159L93.5771 12.3565V8.22528H94.4834V15.2872H93.5417L89.9579 9.52938H89.919L89.9579 10.89V15.2872H89.0527" fill="white"/>
<path d="M88.884 15.2695H89.0017V8.32524H89.9209L93.346 13.8171H93.5708L93.5284 12.3376V8.32759H94.1993V15.1541H93.4366L89.8527 9.3963H89.6278L89.6702 10.8769V15.1541H88.884V15.2718V15.3895H89.9068V10.8734L89.868 9.51163H89.7502V9.62934H89.7891V9.51163L89.689 9.57402L93.3071 15.3872H94.4347V8.08984H93.293V12.3399L93.3319 13.7017H93.4495V13.584H93.4107V13.7017L93.5107 13.6393L90.0504 8.0922H88.7663V15.3895H88.884V15.2718M125.724 35.2747H127.915V20.5624H125.724V35.2747ZM145.466 25.8588L142.954 32.2357H142.878L140.27 25.8588H137.909L141.82 34.7721L139.591 39.7296H141.878L147.904 25.8588H145.466ZM133.039 33.5975C132.32 33.5975 131.319 33.2385 131.319 32.3487C131.319 31.2129 132.567 30.7786 133.642 30.7786C134.341 30.76 135.033 30.93 135.643 31.2706C135.563 31.9075 135.255 32.494 134.777 32.9217C134.298 33.3494 133.681 33.5894 133.039 33.5975ZM133.303 25.5363C132.503 25.4904 131.707 25.6789 131.012 26.0789C130.317 26.4788 129.754 27.0727 129.392 27.7879L131.338 28.6012C131.53 28.2462 131.822 27.955 132.177 27.7633C132.533 27.5716 132.936 27.4877 133.339 27.5219C133.895 27.468 134.45 27.637 134.882 27.9918C135.314 28.3466 135.588 28.8582 135.643 29.4145V29.5651C134.94 29.1908 134.155 28.9959 133.358 28.9978C131.26 28.9978 129.12 30.1524 129.12 32.3099C129.14 32.7644 129.252 33.2102 129.447 33.6209C129.643 34.0317 129.919 34.3989 130.259 34.7008C130.6 35.0027 130.997 35.2332 131.428 35.3785C131.86 35.5237 132.315 35.5809 132.769 35.5466C133.321 35.5788 133.872 35.4623 134.364 35.2093C134.856 34.9564 135.271 34.5762 135.566 34.1083H135.641V35.2441H137.76V29.6075C137.761 26.9969 135.815 25.5398 133.302 25.5398L133.303 25.5363ZM119.756 27.649H116.639V22.6068H119.756C120.425 22.6068 121.066 22.8724 121.539 23.3452C122.012 23.818 122.277 24.4592 122.277 25.1279C122.277 25.7965 122.012 26.4378 121.539 26.9106C121.066 27.3834 120.425 27.649 119.756 27.649ZM119.7 20.56H114.448V35.2723H116.639V29.6993H119.699C120.32 29.7339 120.942 29.6413 121.526 29.4274C122.11 29.2135 122.645 28.8826 123.097 28.455C123.549 28.0275 123.909 27.5122 124.155 26.9407C124.401 26.3693 124.528 25.7536 124.528 25.1314C124.528 24.5092 124.401 23.8936 124.155 23.3221C123.909 22.7507 123.549 22.2354 123.097 21.8078C122.645 21.3803 122.11 21.0494 121.526 20.8355C120.942 20.6215 120.32 20.529 119.699 20.5635L119.7 20.56ZM91.0591 33.601C90.3008 33.5341 89.595 33.1856 89.0809 32.6242C88.5668 32.0628 88.2817 31.3292 88.2817 30.5679C88.2817 29.8067 88.5668 29.073 89.0809 28.5116C89.595 27.9502 90.3008 27.6017 91.0591 27.5348C91.7938 27.6332 92.4678 27.9949 92.9559 28.5528C93.4441 29.1106 93.7131 29.8267 93.7131 30.5679C93.7131 31.3092 93.4441 32.0252 92.9559 32.5831C92.4678 33.1409 91.7938 33.5026 91.0591 33.601ZM93.5767 26.6815H93.5013C93.1678 26.3185 92.7605 26.031 92.3069 25.8381C91.8532 25.6453 91.3636 25.5516 90.8708 25.5634C89.5901 25.6314 88.3843 26.1881 87.5018 27.1188C86.6193 28.0494 86.1274 29.283 86.1274 30.5656C86.1274 31.8481 86.6193 33.0817 87.5018 34.0124C88.3843 34.943 89.5901 35.4997 90.8708 35.5677C91.3655 35.5808 91.8572 35.4858 92.3115 35.2895C92.7658 35.0931 93.1718 34.8001 93.5013 34.4308H93.5767V35.1511C93.5767 37.0661 92.555 38.0936 90.9084 38.0936C90.3593 38.08 89.8267 37.9032 89.3783 37.5859C88.93 37.2686 88.5863 36.825 88.3909 36.3116L86.4794 37.1073C86.8389 37.9854 87.4527 38.7362 88.2418 39.2632C89.0309 39.7902 89.9595 40.0694 90.9084 40.065C93.4825 40.065 95.6587 38.5479 95.6587 34.8521V25.867H93.5767V26.6815ZM97.1724 35.2735H99.3674V20.5612H97.1724V35.2735ZM102.604 30.4208C102.58 30.0568 102.629 29.6918 102.748 29.347C102.867 29.0022 103.054 28.6846 103.297 28.4128C103.54 28.141 103.835 27.9204 104.165 27.764C104.494 27.6076 104.851 27.5185 105.216 27.5019C105.595 27.4766 105.973 27.5635 106.303 27.7519C106.633 27.9403 106.9 28.2218 107.071 28.5612L102.604 30.4208ZM109.418 28.753C109.118 27.8471 108.547 27.0553 107.782 26.4855C107.017 25.9156 106.094 25.5953 105.141 25.5681C104.498 25.5732 103.864 25.7084 103.276 25.9656C102.687 26.2227 102.157 26.5964 101.717 27.0641C101.277 27.5318 100.936 28.0838 100.716 28.6869C100.495 29.2899 100.399 29.9314 100.433 30.5726C100.418 31.23 100.535 31.8836 100.778 32.4945C101.022 33.1054 101.385 33.661 101.848 34.1282C102.311 34.5953 102.863 34.9644 103.471 35.2133C104.08 35.4623 104.733 35.586 105.39 35.5772C106.212 35.5808 107.023 35.3804 107.748 34.9938C108.474 34.6072 109.093 34.0465 109.548 33.3621L107.845 32.2251C107.59 32.6495 107.229 33.0003 106.798 33.243C106.366 33.4857 105.879 33.6119 105.384 33.6093C104.875 33.6284 104.372 33.4941 103.94 33.2238C103.508 32.9535 103.167 32.5596 102.962 32.0933L109.642 29.325L109.418 28.753ZM56.1932 27.1052V29.2238H61.2649C61.1919 30.2193 60.785 31.1611 60.1102 31.8967C59.6025 32.4156 58.9915 32.822 58.3167 33.0899C57.642 33.3577 56.9186 33.4809 56.1932 33.4515C54.6949 33.4515 53.2579 32.8563 52.1984 31.7968C51.1389 30.7373 50.5437 29.3003 50.5437 27.802C50.5437 26.3037 51.1389 24.8667 52.1984 23.8072C53.2579 22.7477 54.6949 22.1525 56.1932 22.1525C57.6177 22.1341 58.9918 22.6794 60.0161 23.6696L61.5109 22.1725C60.812 21.4791 59.9815 20.9324 59.0683 20.5645C58.1551 20.1967 57.1776 20.015 56.1932 20.0304C54.1321 20.0304 52.1553 20.8492 50.6979 22.3066C49.2404 23.7641 48.4216 25.7408 48.4216 27.802C48.4216 29.8632 49.2404 31.8399 50.6979 33.2974C52.1553 34.7548 54.1321 35.5736 56.1932 35.5736C57.1503 35.6268 58.1078 35.4792 59.0044 35.1403C59.901 34.8014 60.7168 34.2787 61.3994 33.6058C62.0819 32.9329 62.6162 32.1246 62.9679 31.2329C63.3195 30.3412 63.4807 29.3858 63.4411 28.4282C63.4448 27.9832 63.4053 27.539 63.3234 27.1017L56.1932 27.1052ZM69.2072 33.6069C68.5979 33.6504 67.9897 33.5094 67.4617 33.2024C66.9337 32.8954 66.5104 32.4365 66.2469 31.8855C65.9834 31.3345 65.8918 30.7169 65.9842 30.1132C66.0767 29.5094 66.3487 28.9475 66.765 28.5005C67.1812 28.0536 67.7225 27.7423 68.3181 27.6072C68.9138 27.4722 69.5362 27.5196 70.1046 27.7433C70.6729 27.967 71.1607 28.3567 71.5045 28.8615C71.8482 29.3664 72.0321 29.963 72.032 30.5738C72.0504 30.9596 71.9914 31.3451 71.8585 31.7077C71.7256 32.0704 71.5215 32.4027 71.2581 32.6852C70.9947 32.9676 70.6775 33.1945 70.325 33.3524C69.9726 33.5103 69.5921 33.596 69.206 33.6045L69.2072 33.6069ZM69.2072 25.5693C68.2178 25.5713 67.2513 25.8666 66.4297 26.4178C65.6081 26.969 64.9683 27.7513 64.5911 28.666C64.2139 29.5806 64.1164 30.5865 64.3106 31.5566C64.5049 32.5267 64.9824 33.4174 65.6827 34.1163C66.3831 34.8151 67.2748 35.2907 68.2453 35.4829C69.2158 35.6752 70.2215 35.5755 71.1354 35.1964C72.0492 34.8173 72.8302 34.1758 73.3796 33.3531C73.9291 32.5303 74.2223 31.5632 74.2223 30.5738C74.2328 29.9126 74.1102 29.256 73.8617 28.6432C73.6132 28.0303 73.244 27.4737 72.7759 27.0066C72.3079 26.5394 71.7506 26.1712 71.1373 25.9239C70.524 25.6765 69.8672 25.5551 69.206 25.5669L69.2072 25.5693ZM80.1531 33.6069C79.5439 33.6504 78.9357 33.5094 78.4078 33.2024C77.8798 32.8954 77.4564 32.4365 77.1929 31.8855C76.9294 31.3345 76.8379 30.7169 76.9303 30.1132C77.0227 29.5094 77.2947 28.9475 77.7109 28.5005C78.1272 28.0536 78.6684 27.7423 79.2641 27.6072C79.8597 27.4722 80.4823 27.5196 81.0506 27.7433C81.6189 27.967 82.1067 28.3567 82.4505 28.8615C82.7942 29.3664 82.978 29.963 82.9779 30.5738C82.9967 30.9597 82.938 31.3454 82.8054 31.7082C82.6727 32.071 82.4687 32.4036 82.2054 32.6863C81.9421 32.969 81.6249 33.1961 81.2724 33.3542C80.9199 33.5123 80.5393 33.5982 80.1531 33.6069ZM80.1531 25.5693C79.1638 25.5713 78.1973 25.8666 77.3757 26.4178C76.5541 26.969 75.9143 27.7513 75.5371 28.666C75.16 29.5806 75.0624 30.5865 75.2567 31.5566C75.451 32.5267 75.9284 33.4174 76.6287 34.1163C77.329 34.8151 78.2208 35.2907 79.1913 35.4829C80.1618 35.6752 81.1675 35.5755 82.0813 35.1964C82.9952 34.8173 83.7761 34.1758 84.3256 33.3531C84.875 32.5303 85.1683 31.5632 85.1683 30.5738C85.1787 29.9128 85.0559 29.2565 84.8074 28.644C84.5589 28.0314 84.1897 27.4751 83.7218 27.0082C83.2539 26.5412 82.6968 26.1732 82.0838 25.926C81.4707 25.6788 80.8141 25.5575 80.1531 25.5693Z" fill="white"/>
<path d="M12.8149 8.95808C12.5941 9.18737 12.4239 9.46051 12.3154 9.75979C12.2069 10.0591 12.1626 10.3778 12.1852 10.6953V36.3536C12.15 36.9521 12.3445 37.5414 12.729 38.0014L12.816 38.085C13.1012 38.3393 13.4722 38.476 13.8542 38.4675C14.3194 38.4514 14.7726 38.3156 15.17 38.0732L32.221 28.3772L38.0777 25.0463C38.3871 24.9052 38.6594 24.694 38.8731 24.4295C39.0867 24.1649 39.2359 23.8543 39.3088 23.5221C39.2368 23.1889 39.0881 22.877 38.8743 22.6114C38.6606 22.3457 38.3878 22.1337 38.0777 21.992L32.2198 18.6612L15.1689 8.96516C14.7708 8.72198 14.3168 8.58575 13.8506 8.5697C13.4692 8.56138 13.0988 8.6976 12.8137 8.95103L12.8149 8.95808Z" fill="#00C1FF"/>
<path d="M12.8121 38.0868L12.725 38.0033C12.3406 37.5433 12.1461 36.9539 12.1813 36.3555V10.6972C12.1587 10.3797 12.203 10.0609 12.3115 9.76167C12.42 9.46239 12.5901 9.18924 12.811 8.95996L27.3656 23.5252L12.8121 38.0868Z" fill="url(#paint0_linear_463_2189)"/>
<path d="M32.1532 28.3818L27.3005 23.5208L32.1521 18.6611L38.0099 21.9943C38.32 22.136 38.5928 22.3481 38.8065 22.6137C39.0202 22.8793 39.169 23.1912 39.2411 23.5244C39.1689 23.8576 39.0201 24.1693 38.8064 24.435C38.5927 24.7006 38.32 24.9127 38.0099 25.0545L32.1532 28.3877" fill="url(#paint1_linear_463_2189)"/>
<path d="M13.8504 38.4751C13.4684 38.4836 13.0974 38.3469 12.8123 38.0926L27.3598 23.5156L32.2125 28.3766L15.1662 38.0808C14.7688 38.3232 14.3156 38.459 13.8504 38.4751Z" fill="url(#paint2_linear_463_2189)"/>
<path d="M27.3669 23.5253L12.8123 8.9483C13.0972 8.69444 13.4676 8.55777 13.8492 8.56576C14.3153 8.58182 14.7694 8.71804 15.1674 8.96123L32.2184 18.6655L27.3669 23.5253Z" fill="url(#paint3_linear_463_2189)"/>
<path d="M13.8546 38.6465C13.4727 38.6547 13.1018 38.5181 12.8165 38.264L12.7412 38.1863L12.7341 38.1781L12.8212 38.091C13.1064 38.3453 13.4773 38.482 13.8593 38.4735C14.3246 38.4574 14.7778 38.3216 15.1752 38.0792L32.2262 28.375L32.3356 28.4844L32.225 28.5468L15.1705 38.2546C14.803 38.4764 14.3894 38.6109 13.9617 38.6477H13.8546" fill="url(#paint4_linear_463_2189)"/>
<path d="M12.7273 38.1761C12.3428 37.7161 12.1483 37.1267 12.1835 36.5283V36.3564C12.1483 36.9549 12.3428 37.5442 12.7273 38.0042L12.8144 38.0878L12.7273 38.1761Z" fill="url(#paint5_linear_463_2189)"/>
<path d="M32.2577 28.4896L32.1482 28.3789L38.0049 25.0457C38.3149 24.9039 38.5876 24.6918 38.8013 24.4262C39.015 24.1606 39.1639 23.8488 39.236 23.5156C39.2351 23.7254 39.1889 23.9326 39.1006 24.123C38.8586 24.5924 38.4754 24.974 38.0049 25.214L32.2577 28.4896Z" fill="url(#paint6_linear_463_2189)"/>
<path d="M39.2333 23.5209C39.1612 23.1876 39.0124 22.8758 38.7987 22.6102C38.585 22.3446 38.3122 22.1325 38.0021 21.9908L32.1443 18.6611L32.2537 18.5516L38.0021 21.8284C38.3403 21.9757 38.6328 22.211 38.8493 22.5096C39.0658 22.8083 39.1984 23.1595 39.2333 23.5268" fill="url(#paint7_linear_463_2189)"/>
<path d="M32.2184 18.6666L15.1674 8.96237C14.7694 8.71919 14.3153 8.58297 13.8492 8.56691C13.4676 8.55892 13.0972 8.69557 12.8122 8.94942L12.7263 8.86351C12.753 8.83526 12.7809 8.80781 12.8099 8.78113C13.0924 8.52939 13.4591 8.39288 13.8374 8.39861H13.8456C14.3118 8.41467 14.7659 8.55089 15.1639 8.79408L32.3243 18.563L32.2148 18.6725" fill="url(#paint8_linear_463_2189)"/>
</g>
<defs>
<linearGradient id="paint0_linear_463_2189" x1="25.0719" y1="17.9893" x2="13.4027" y2="24.0874" gradientUnits="userSpaceOnUse">
<stop stop-color="#00A0FF"/>
<stop offset="0.007" stop-color="#00A1FF"/>
<stop offset="0.26" stop-color="#00BEFF"/>
<stop offset="0.512" stop-color="#00D2FF"/>
<stop offset="0.76" stop-color="#00DFFF"/>
<stop offset="1" stop-color="#00E3FF"/>
</linearGradient>
<linearGradient id="paint1_linear_463_2189" x1="38.8828" y1="22.9019" x2="13.2465" y2="22.9019" gradientUnits="userSpaceOnUse">
<stop stop-color="#FFE000"/>
<stop offset="0.409" stop-color="#FFBD00"/>
<stop offset="0.775" stop-color="#FFA500"/>
<stop offset="1" stop-color="#FF9C00"/>
</linearGradient>
<linearGradient id="paint2_linear_463_2189" x1="27.5758" y1="26.7021" x2="10.1338" y2="49.2086" gradientUnits="userSpaceOnUse">
<stop stop-color="#FF3A44"/>
<stop offset="1" stop-color="#C31162"/>
</linearGradient>
<linearGradient id="paint3_linear_463_2189" x1="9.51321" y1="4.45147" x2="17.2895" y2="14.5014" gradientUnits="userSpaceOnUse">
<stop stop-color="#32A071"/>
<stop offset="0.068" stop-color="#2DA771"/>
<stop offset="0.476" stop-color="#15CF74"/>
<stop offset="0.801" stop-color="#06E775"/>
<stop offset="1" stop-color="#00F076"/>
</linearGradient>
<linearGradient id="paint4_linear_463_2189" x1="24.9655" y1="28.7654" x2="16.6243" y2="44.6973" gradientUnits="userSpaceOnUse">
<stop stop-color="#CC2E36"/>
<stop offset="1" stop-color="#9C0E4E"/>
</linearGradient>
<linearGradient id="paint5_linear_463_2189" x1="15.502" y1="21.8032" x2="8.30028" y2="24.32" gradientUnits="userSpaceOnUse">
<stop stop-color="#008DE0"/>
<stop offset="0.007" stop-color="#008DE0"/>
<stop offset="0.26" stop-color="#00A7E0"/>
<stop offset="0.512" stop-color="#00B8E0"/>
<stop offset="0.76" stop-color="#00C4E0"/>
<stop offset="1" stop-color="#00C7E0"/>
</linearGradient>
<linearGradient id="paint6_linear_463_2189" x1="38.832" y1="22.5457" x2="15.0382" y2="22.5457" gradientUnits="userSpaceOnUse">
<stop stop-color="#E0C500"/>
<stop offset="0.409" stop-color="#E0A600"/>
<stop offset="0.775" stop-color="#E09100"/>
<stop offset="1" stop-color="#E08900"/>
</linearGradient>
<linearGradient id="paint7_linear_463_2189" x1="38.8363" y1="23.5218" x2="15.0315" y2="23.5218" gradientUnits="userSpaceOnUse">
<stop stop-color="#FFE840"/>
<stop offset="0.409" stop-color="#FFCE40"/>
<stop offset="0.775" stop-color="#FFBC40"/>
<stop offset="1" stop-color="#FFB540"/>
</linearGradient>
<linearGradient id="paint8_linear_463_2189" x1="10.0414" y1="6.50801" x2="13.7678" y2="13.6162" gradientUnits="userSpaceOnUse">
<stop stop-color="#65B895"/>
<stop offset="0.068" stop-color="#62BD95"/>
<stop offset="0.476" stop-color="#50DB97"/>
<stop offset="0.801" stop-color="#44ED98"/>
<stop offset="1" stop-color="#40F498"/>
</linearGradient>
<clipPath id="clip0_463_2189">
<rect width="158.223" height="47.0394" fill="white" transform="translate(0.468506)"/>
</clipPath>
</defs>
</svg>
