<svg width="34" height="25" viewBox="0 0 34 25" fill="none" xmlns="http://www.w3.org/2000/svg">
<g clip-path="url(#clip0_463_2160)">
<path d="M29.1433 7.24028C29.1234 6.21926 28.9299 5.20908 28.5709 4.25303C28.2539 3.43515 27.7697 2.6924 27.1494 2.07223C26.529 1.45206 25.7861 0.96811 24.9681 0.65131C24.0113 0.292539 23.0005 0.0989778 21.9789 0.0788911C20.6637 0.0163149 20.2452 0.00195312 16.903 0.00195312C13.5608 0.00195312 13.1412 0.0163149 11.8282 0.0737619C10.8075 0.0937988 9.79768 0.287368 8.84195 0.64618C8.01849 0.955198 7.27293 1.44127 6.65794 2.07005C6.03299 2.68517 5.54895 3.42857 5.2392 4.24893C4.88079 5.20477 4.68724 6.21452 4.66678 7.23515C4.60421 8.55335 4.58984 8.97189 4.58984 12.312C4.58984 15.6522 4.60421 16.0728 4.66165 17.3858C4.68151 18.4069 4.87509 19.417 5.23407 20.3731C5.55093 21.1912 6.03501 21.9342 6.65537 22.5545C7.27573 23.1749 8.01872 23.659 8.83682 23.9758C9.79255 24.3349 10.8023 24.5292 11.823 24.5503C13.1361 24.6077 13.5547 24.6221 16.8968 24.6221C20.239 24.6221 20.6576 24.6077 21.9706 24.5503C22.9913 24.5304 24.0012 24.3368 24.9569 23.9779C25.7752 23.6615 26.5184 23.1775 27.1389 22.5571C27.7593 21.9367 28.2432 21.1935 28.5596 20.3751C28.918 19.4189 29.1116 18.4088 29.132 17.3879C29.1895 16.0748 29.2038 15.6563 29.2038 12.3141C29.2038 8.97189 29.2008 8.55335 29.1433 7.24028ZM26.9265 17.2935C26.9184 18.0738 26.7751 18.8468 26.5028 19.5781C26.2976 20.1092 25.9836 20.5915 25.581 20.9942C25.1784 21.3968 24.6961 21.7108 24.1649 21.9159C23.4334 22.1874 22.6605 22.3304 21.8804 22.3386C20.5817 22.396 20.1918 22.4104 16.9071 22.4104C13.6224 22.4104 13.2274 22.396 11.9338 22.3386C11.1536 22.3309 10.3806 22.1879 9.64928 21.9159C9.11382 21.7197 8.62955 21.4052 8.2326 20.9958C7.82346 20.5992 7.50803 20.1162 7.30934 19.5822C7.04208 18.8499 6.90326 18.0771 6.89901 17.2976C6.84156 15.9989 6.8272 15.6091 6.8272 12.3243C6.8272 9.0396 6.84156 8.64465 6.89901 7.35107C6.90669 6.57084 7.04969 5.79786 7.32165 5.06652C7.51757 4.53077 7.83336 4.0469 8.24491 3.65189C8.6414 3.24261 9.12438 2.92717 9.65852 2.72863C10.389 2.45916 11.1604 2.31757 11.939 2.31009C13.2377 2.25265 13.6275 2.23828 16.9122 2.23828C20.197 2.23828 20.5919 2.25265 21.8855 2.31009C22.6658 2.31816 23.4388 2.46151 24.17 2.73376C24.7047 2.93116 25.188 3.24677 25.5837 3.65702C25.9929 4.05389 26.3084 4.53722 26.5069 5.07165C26.7786 5.80309 26.9219 6.57597 26.9306 7.3562C26.988 8.65491 27.0024 9.04473 27.0024 12.3295C27.0024 15.6142 26.9839 15.9938 26.9254 17.2925L26.9265 17.2935Z" fill="#1F1F1F"/>
<path d="M16.9024 5.99023C15.6516 5.99023 14.4289 6.36114 13.3888 7.05607C12.3488 7.75099 11.5382 8.73871 11.0595 9.89433C10.5809 11.0499 10.4556 12.3216 10.6996 13.5484C10.9437 14.7751 11.546 15.902 12.4305 16.7865C13.3149 17.671 14.4418 18.2733 15.6686 18.5173C16.8954 18.7613 18.167 18.6361 19.3226 18.1574C20.4782 17.6788 21.466 16.8682 22.1609 15.8281C22.8558 14.7881 23.2267 13.5654 23.2267 12.3145C23.2262 10.6374 22.5597 9.0291 21.3738 7.84318C20.1879 6.65726 18.5796 5.99078 16.9024 5.99023ZM16.9024 16.4179C16.0909 16.4179 15.2975 16.1772 14.6227 15.7263C13.9479 15.2755 13.422 14.6346 13.1114 13.8848C12.8008 13.135 12.7196 12.31 12.8779 11.514C13.0362 10.718 13.4271 9.98689 14.0009 9.41302C14.5748 8.83916 15.3059 8.44835 16.1019 8.29002C16.8979 8.13169 17.7229 8.21295 18.4727 8.52353C19.2225 8.8341 19.8634 9.36004 20.3142 10.0348C20.7651 10.7096 21.0058 11.503 21.0058 12.3145C21.0058 13.4028 20.5735 14.4465 19.8039 15.216C19.0344 15.9856 17.9907 16.4179 16.9024 16.4179Z" fill="#1F1F1F"/>
<path d="M24.9524 5.73791C24.9524 6.02982 24.8658 6.31519 24.7036 6.55792C24.5415 6.80066 24.311 6.98987 24.0413 7.10162C23.7716 7.21338 23.4749 7.24267 23.1886 7.1858C22.9022 7.12892 22.6392 6.98843 22.4327 6.78208C22.2262 6.57574 22.0856 6.31281 22.0285 6.02652C21.9714 5.74024 22.0005 5.44346 22.1121 5.17371C22.2236 4.90395 22.4127 4.67333 22.6553 4.511C22.8979 4.34867 23.1832 4.26192 23.4751 4.26172C23.6691 4.26158 23.8612 4.29967 24.0404 4.3738C24.2196 4.44792 24.3824 4.55663 24.5196 4.69372C24.6568 4.83081 24.7656 4.99359 24.8399 5.17276C24.9141 5.35192 24.9524 5.54396 24.9524 5.73791Z" fill="#1F1F1F"/>
</g>
<defs>
<clipPath id="clip0_463_2160">
<rect width="32.8269" height="24.6201" fill="white" transform="translate(0.484375)"/>
</clipPath>
</defs>
</svg>
