<svg width="34" height="25" viewBox="0 0 34 25" fill="none" xmlns="http://www.w3.org/2000/svg">
<g clip-path="url(#clip0_463_2169)">
<path d="M26.1649 0.00390625H8.25992C7.36943 0.00390625 6.51542 0.35765 5.88575 0.987317C5.25609 1.61698 4.90234 2.471 4.90234 3.36148L4.90234 21.2665C4.90234 22.157 5.25609 23.011 5.88575 23.6406C6.51542 24.2703 7.36943 24.6241 8.25992 24.6241H26.1649C27.0554 24.6241 27.9094 24.2703 28.5391 23.6406C29.1688 23.011 29.5225 22.157 29.5225 21.2665V3.36148C29.5225 2.471 29.1688 1.61698 28.5391 0.987317C27.9094 0.35765 27.0554 0.00390625 26.1649 0.00390625ZM13.2958 19.4877C13.2959 19.5559 13.2826 19.6235 13.2565 19.6866C13.2305 19.7497 13.1923 19.8071 13.1441 19.8554C13.0959 19.9037 13.0386 19.942 12.9756 19.9682C12.9125 19.9943 12.8449 20.0078 12.7767 20.0078H10.565C10.4966 20.0079 10.4289 19.9946 10.3658 19.9685C10.3026 19.9424 10.2452 19.9041 10.1969 19.8557C10.1486 19.8074 10.1103 19.75 10.0842 19.6869C10.0581 19.6237 10.0447 19.556 10.0449 19.4877V10.2161C10.0449 10.0782 10.0997 9.94591 10.1972 9.84837C10.2947 9.75083 10.427 9.69604 10.565 9.69604H12.7767C12.9144 9.69631 13.0465 9.75123 13.1438 9.84873C13.2411 9.94624 13.2958 10.0784 13.2958 10.2161V19.4877ZM11.6729 8.81689C11.2579 8.8173 10.8522 8.69463 10.5069 8.46441C10.1617 8.23419 9.89249 7.90676 9.73337 7.52352C9.57424 7.14029 9.53235 6.71847 9.61298 6.31142C9.69361 5.90437 9.89314 5.53038 10.1863 5.23674C10.4796 4.94311 10.8533 4.74302 11.2602 4.6618C11.6671 4.58057 12.089 4.62185 12.4725 4.78041C12.8559 4.93897 13.1838 5.2077 13.4145 5.55259C13.6452 5.89749 13.7685 6.30307 13.7687 6.71803C13.7689 7.27423 13.5483 7.80778 13.1553 8.20136C12.7623 8.59495 12.2291 8.81635 11.6729 8.81689ZM24.8559 19.5236C24.8561 19.5864 24.8438 19.6486 24.8198 19.7067C24.7959 19.7647 24.7607 19.8175 24.7162 19.8619C24.6718 19.9063 24.6191 19.9415 24.561 19.9655C24.5029 19.9895 24.4407 20.0018 24.3779 20.0016H21.999C21.9362 20.0018 21.8739 19.9895 21.8159 19.9655C21.7578 19.9415 21.7051 19.9063 21.6607 19.8619C21.6162 19.8175 21.581 19.7647 21.5571 19.7067C21.5331 19.6486 21.5208 19.5864 21.5209 19.5236V15.1802C21.5209 14.5308 21.7107 12.3376 19.8242 12.3376C18.3624 12.3376 18.0649 13.8384 18.0054 14.5124V19.5287C18.0054 19.6544 17.9559 19.7751 17.8676 19.8646C17.7792 19.9541 17.6592 20.0051 17.5335 20.0068H15.2377C15.1749 20.0068 15.1128 19.9944 15.0549 19.9703C14.997 19.9463 14.9443 19.9111 14.9 19.8667C14.8557 19.8223 14.8206 19.7696 14.7967 19.7116C14.7728 19.6536 14.7605 19.5914 14.7607 19.5287V10.1751C14.7605 10.1124 14.7728 10.0502 14.7967 9.99224C14.8206 9.93425 14.8557 9.88155 14.9 9.83714C14.9443 9.79274 14.997 9.75751 15.0549 9.73347C15.1128 9.70944 15.1749 9.69706 15.2377 9.69706H17.5345C17.6613 9.69706 17.7829 9.74743 17.8726 9.83708C17.9622 9.92673 18.0126 10.0483 18.0126 10.1751V10.9804C18.3423 10.4831 18.8025 10.0861 19.3428 9.83276C19.883 9.57946 20.4825 9.47964 21.0757 9.54421C24.8775 9.54421 24.8529 13.0946 24.8529 15.0448L24.8559 19.5236Z" fill="#1F1F1F"/>
</g>
<defs>
<clipPath id="clip0_463_2169">
<rect width="32.8269" height="24.6201" fill="white" transform="translate(0.796875)"/>
</clipPath>
</defs>
</svg>
