<svg width="33" height="25" viewBox="0 0 33 25" fill="none" xmlns="http://www.w3.org/2000/svg">
<g clip-path="url(#clip0_463_2176)">
<path d="M27.4806 1.35661C27.0578 0.91963 26.5499 0.574003 25.9883 0.341095C25.4267 0.108187 24.8232 -0.00705183 24.2153 0.0025021H8.82771C8.22031 -0.00656851 7.61748 0.108903 7.05642 0.341795C6.49537 0.574687 5.98797 0.92006 5.56554 1.35661C5.12899 1.77904 4.78362 2.28643 4.55073 2.84749C4.31783 3.40855 4.20236 4.01137 4.21143 4.61878V20.0064C4.20236 20.6138 4.31783 21.2166 4.55073 21.7777C4.78362 22.3387 5.12899 22.8461 5.56554 23.2685C5.98797 23.7051 6.49537 24.0505 7.05642 24.2834C7.61748 24.5163 8.22031 24.6317 8.82771 24.6227H24.2153C25.439 24.6205 26.6119 24.1334 27.4771 23.2682C28.3424 22.4029 28.8294 21.23 28.8316 20.0064V4.61878C28.8411 4.0116 28.7261 3.40891 28.4937 2.84786C28.2613 2.28682 27.9165 1.77931 27.4806 1.35661ZM23.0489 9.4751C23.0618 9.61903 23.0672 9.76352 23.0653 9.90801C23.0592 11.7912 22.5049 13.6319 21.4702 15.2054C20.9365 16.0273 20.2862 16.7672 19.5395 17.4018C18.7404 18.0665 17.8283 18.5822 16.8467 18.9241C15.7664 19.3095 14.6268 19.5022 13.4799 19.4935C11.6486 19.5028 9.85411 18.9796 8.31479 17.9875C8.5806 18.0201 8.84817 18.0362 9.11597 18.0357C10.6343 18.0463 12.1105 17.5369 13.2993 16.5924C12.5931 16.5898 11.9077 16.3531 11.3503 15.9194C10.793 15.4982 10.3781 14.9164 10.1613 14.2524C10.3678 14.2881 10.5766 14.3094 10.786 14.316C11.0641 14.3099 11.3401 14.2668 11.6067 14.1878C10.8339 14.0443 10.1357 13.6349 9.633 13.0307C9.10931 12.4398 8.8225 11.6762 8.82771 10.8867V10.8549C9.32668 11.1046 9.87264 11.2465 10.4301 11.2713C9.9641 10.971 9.58472 10.5541 9.32956 10.062C9.0744 9.56986 8.95232 9.01956 8.97543 8.46568C8.97619 7.86771 9.13777 7.28096 9.44322 6.76689C10.2842 7.80097 11.3326 8.64736 12.5207 9.25147C13.7249 9.87047 15.0472 10.2258 16.3994 10.2937C16.3407 10.0416 16.3138 9.78314 16.3194 9.52434C16.3191 8.63204 16.6732 7.77614 17.3038 7.1448C17.9344 6.51346 18.7898 6.15836 19.6821 6.15754C20.143 6.14671 20.6008 6.23562 21.0242 6.41816C21.4475 6.60071 21.8264 6.87259 22.1349 7.21518C22.8929 7.06755 23.6197 6.7899 24.283 6.39451C24.0409 7.18546 23.5084 7.85544 22.7925 8.26974C23.46 8.18144 24.1118 7.99908 24.7282 7.7281C24.2822 8.41024 23.7126 9.00206 23.0489 9.4751Z" fill="#1F1F1F"/>
</g>
<defs>
<clipPath id="clip0_463_2176">
<rect width="32.8269" height="24.6201" fill="white" transform="translate(0.113281)"/>
</clipPath>
</defs>
</svg>
