<svg width="34" height="25" viewBox="0 0 34 25" fill="none" xmlns="http://www.w3.org/2000/svg">
<g clip-path="url(#clip0_463_2182)">
<path d="M31.2433 4.87202C31.0695 4.22994 30.7306 3.64457 30.2603 3.17412C29.79 2.70368 29.2048 2.36455 28.5628 2.19047C26.1828 1.53906 16.663 1.53906 16.663 1.53906C16.663 1.53906 7.14223 1.53906 4.76331 2.16585C4.1215 2.34877 3.53759 2.69381 3.06777 3.16777C2.59794 3.64172 2.25803 4.22864 2.08074 4.87202C1.64865 7.28719 1.43884 9.73688 1.45395 12.1904C1.43822 14.6428 1.64803 17.0916 2.08074 19.5056C2.25482 20.1475 2.59382 20.7326 3.06407 21.2028C3.53431 21.673 4.11942 22.0121 4.76125 22.1861C7.16582 22.8375 16.661 22.8375 16.661 22.8375C16.661 22.8375 26.1818 22.8375 28.5607 22.2108C29.2028 22.0368 29.7881 21.6979 30.2585 21.2276C30.7289 20.7574 31.0681 20.1722 31.2423 19.5302C31.6738 17.116 31.8832 14.6674 31.868 12.215C31.8975 9.75289 31.6882 7.29374 31.2433 4.87202ZM13.6307 16.7482V7.62845L21.5471 12.1904L13.6307 16.7482Z" fill="#1F1F1F"/>
</g>
<defs>
<clipPath id="clip0_463_2182">
<rect width="32.8269" height="24.6201" fill="white" transform="translate(0.425781)"/>
</clipPath>
</defs>
</svg>
