<svg width="120" height="22" viewBox="0 0 176 22" fill="none" xmlns="http://www.w3.org/2000/svg">
<path d="M4.54401 10.4062H8.07502C8.59599 10.4062 9.09767 10.3676 9.58005 10.2905C10.0624 10.2133 10.4869 10.0686 10.8535 9.85633C11.2201 9.62479 11.5096 9.30642 11.7218 8.90122C11.9534 8.49602 12.0691 7.9654 12.0691 7.30937C12.0691 6.65333 11.9534 6.12271 11.7218 5.71752C11.5096 5.31232 11.2201 5.00359 10.8535 4.79135C10.4869 4.55981 10.0624 4.40544 9.58005 4.32827C9.09767 4.25108 8.59599 4.21249 8.07502 4.21249H4.54401V10.4062ZM0 0.681479H9.31956C10.6123 0.681479 11.7122 0.87443 12.619 1.26033C13.5259 1.62694 14.2591 2.11897 14.8187 2.73641C15.3975 3.35386 15.8124 4.05813 16.0632 4.84923C16.3334 5.64033 16.4684 6.46038 16.4684 7.30937C16.4684 8.13906 16.3334 8.9591 16.0632 9.7695C15.8124 10.5606 15.3975 11.2649 14.8187 11.8823C14.2591 12.4998 13.5259 13.0014 12.619 13.3873C11.7122 13.754 10.6123 13.9373 9.31956 13.9373H4.54401V21.3466H0V0.681479Z" fill="#3B3B3B"/>
<path d="M21.0411 0.681479H25.5852V17.5262H35.6572V21.3466H21.0411V0.681479Z" fill="#3B3B3B"/>
<path d="M57.4735 13.5321C57.4735 16.3299 56.692 18.4137 55.1291 19.7837C53.5662 21.1343 51.4052 21.8097 48.646 21.8097C45.8482 21.8097 43.6775 21.1343 42.1338 19.7837C40.6095 18.433 39.8474 16.3491 39.8474 13.5321V0.681479H44.3914V13.5321C44.3914 14.0916 44.4396 14.6415 44.5361 15.1818C44.6326 15.7221 44.8352 16.2044 45.1439 16.6289C45.4526 17.0341 45.8771 17.3718 46.4174 17.6419C46.9769 17.8928 47.7198 18.0182 48.646 18.0182C50.2667 18.0182 51.3859 17.6612 52.0033 16.9473C52.6208 16.2141 52.9295 15.0757 52.9295 13.5321V0.681479H57.4735V13.5321Z" fill="#3B3B3B"/>
<path d="M66.2203 14.4872C66.2203 15.1818 66.3457 15.7703 66.5966 16.2527C66.8474 16.7351 67.1754 17.1306 67.5806 17.4393C68.0051 17.7288 68.4971 17.9506 69.0567 18.105C69.6162 18.2401 70.1951 18.3076 70.7933 18.3076C71.1984 18.3076 71.6326 18.2787 72.0957 18.2208C72.5588 18.1436 72.9929 18.0085 73.3981 17.8156C73.8033 17.6226 74.141 17.3621 74.4111 17.0341C74.6812 16.6868 74.8163 16.2527 74.8163 15.7317C74.8163 15.1721 74.633 14.7187 74.2664 14.3714C73.9191 14.0241 73.456 13.7347 72.8771 13.5031C72.2983 13.2716 71.6422 13.069 70.909 12.8953C70.1758 12.7217 69.4329 12.5287 68.6804 12.3165C67.9086 12.1235 67.1561 11.892 66.4229 11.6218C65.6897 11.3324 65.0336 10.9658 64.4548 10.522C63.8759 10.0782 63.4032 9.52831 63.0366 8.87227C62.6893 8.19694 62.5156 7.38655 62.5156 6.44108C62.5156 5.37985 62.7375 4.46333 63.1813 3.69152C63.6444 2.90042 64.2425 2.24439 64.9758 1.72342C65.709 1.20245 66.5387 0.816545 67.4648 0.565707C68.391 0.314871 69.3172 0.189453 70.2433 0.189453C71.3239 0.189453 72.3562 0.314871 73.3402 0.565707C74.3436 0.79725 75.2311 1.18315 76.0029 1.72342C76.7748 2.26368 77.3826 2.95831 77.8263 3.8073C78.2894 4.63699 78.521 5.64998 78.521 6.84628H74.1217C74.0831 6.22884 73.948 5.71752 73.7165 5.31232C73.5042 4.90712 73.2148 4.58875 72.8482 4.35721C72.4816 4.12566 72.0571 3.96166 71.5747 3.86518C71.1116 3.7687 70.6003 3.72047 70.0407 3.72047C69.6741 3.72047 69.3075 3.75906 68.9409 3.83624C68.5743 3.91342 68.2366 4.04848 67.9279 4.24144C67.6385 4.43439 67.3973 4.67558 67.2044 4.965C67.0114 5.25443 66.9149 5.62104 66.9149 6.06483C66.9149 6.47003 66.9921 6.79804 67.1465 7.04888C67.3008 7.29972 67.5999 7.53126 68.0437 7.74351C68.5068 7.95575 69.1339 8.168 69.925 8.38025C70.7354 8.59249 71.787 8.86263 73.0797 9.19065C73.4656 9.26783 73.9963 9.41254 74.6716 9.62479C75.3662 9.81774 76.0512 10.1361 76.7265 10.5799C77.4018 11.0237 77.9807 11.6218 78.4631 12.3743C78.9648 13.1076 79.2156 14.053 79.2156 15.2107C79.2156 16.1562 79.0323 17.0341 78.6657 17.8445C78.2991 18.6549 77.7492 19.3592 77.0159 19.9573C76.302 20.5362 75.4048 20.9896 74.3243 21.3177C73.263 21.6457 72.0281 21.8097 70.6196 21.8097C69.4812 21.8097 68.3717 21.665 67.2912 21.3755C66.2299 21.1054 65.2845 20.6713 64.4548 20.0731C63.6444 19.475 62.998 18.7128 62.5156 17.7866C62.0333 16.8605 61.8017 15.7606 61.821 14.4872H66.2203Z" fill="#3B3B3B"/>
<path d="M105.788 19.0022C104.978 20.0442 104.081 20.7774 103.097 21.2019C102.112 21.6071 101.119 21.8097 100.115 21.8097C98.5332 21.8097 97.1054 21.5395 95.8319 20.9993C94.5777 20.4397 93.5165 19.6776 92.6482 18.7128C91.7799 17.748 91.1143 16.6193 90.6512 15.3265C90.1881 14.0144 89.9565 12.6059 89.9565 11.1009C89.9565 9.55725 90.1881 8.12941 90.6512 6.81734C91.1143 5.48597 91.7799 4.32826 92.6482 3.34421C93.5165 2.36016 94.5777 1.58835 95.8319 1.02879C97.1054 0.469233 98.5332 0.189453 100.115 0.189453C101.177 0.189453 102.199 0.353462 103.183 0.681479C104.187 0.990202 105.084 1.45329 105.875 2.07073C106.685 2.68818 107.351 3.45034 107.872 4.35721C108.393 5.26408 108.711 6.30602 108.827 7.48302H104.486C104.216 6.32531 103.695 5.45703 102.923 4.87818C102.151 4.29932 101.215 4.00989 100.115 4.00989C99.0928 4.00989 98.2245 4.21249 97.5106 4.61769C96.7967 5.00359 96.2178 5.53421 95.774 6.20954C95.3302 6.86558 95.0022 7.61809 94.79 8.46708C94.597 9.31606 94.5006 10.194 94.5006 11.1009C94.5006 11.9691 94.597 12.8181 94.79 13.6478C95.0022 14.4582 95.3302 15.1914 95.774 15.8475C96.2178 16.5035 96.7967 17.0341 97.5106 17.4393C98.2245 17.8252 99.0928 18.0182 100.115 18.0182C101.62 18.0182 102.778 17.6419 103.589 16.8894C104.418 16.1176 104.901 15.0081 105.036 13.561H100.463V10.1747H109.146V21.3466H106.251L105.788 19.0022Z" fill="#C4963C"/>
<path d="M118.199 11.1009C118.199 11.9691 118.295 12.8181 118.488 13.6478C118.7 14.4582 119.028 15.1914 119.472 15.8475C119.916 16.5035 120.495 17.0341 121.209 17.4393C121.923 17.8252 122.791 18.0182 123.813 18.0182C124.836 18.0182 125.704 17.8252 126.418 17.4393C127.132 17.0341 127.711 16.5035 128.155 15.8475C128.599 15.1914 128.917 14.4582 129.11 13.6478C129.322 12.8181 129.428 11.9691 129.428 11.1009C129.428 10.194 129.322 9.31606 129.11 8.46708C128.917 7.61809 128.599 6.86558 128.155 6.20954C127.711 5.53421 127.132 5.00359 126.418 4.61769C125.704 4.21249 124.836 4.00989 123.813 4.00989C122.791 4.00989 121.923 4.21249 121.209 4.61769C120.495 5.00359 119.916 5.53421 119.472 6.20954C119.028 6.86558 118.7 7.61809 118.488 8.46708C118.295 9.31606 118.199 10.194 118.199 11.1009ZM113.655 11.1009C113.655 9.55725 113.886 8.12941 114.349 6.81734C114.812 5.48597 115.478 4.32826 116.346 3.34421C117.214 2.36016 118.276 1.58835 119.53 1.02879C120.803 0.469233 122.231 0.189453 123.813 0.189453C125.415 0.189453 126.843 0.469233 128.097 1.02879C129.351 1.58835 130.412 2.36016 131.281 3.34421C132.149 4.32826 132.815 5.48597 133.278 6.81734C133.741 8.12941 133.972 9.55725 133.972 11.1009C133.972 12.6059 133.741 14.0144 133.278 15.3265C132.815 16.6193 132.149 17.748 131.281 18.7128C130.412 19.6776 129.351 20.4397 128.097 20.9993C126.843 21.5395 125.415 21.8097 123.813 21.8097C122.231 21.8097 120.803 21.5395 119.53 20.9993C118.276 20.4397 117.214 19.6776 116.346 18.7128C115.478 17.748 114.812 16.6193 114.349 15.3265C113.886 14.0144 113.655 12.6059 113.655 11.1009Z" fill="#C4963C"/>
<path d="M138.815 0.681479H143.359V17.5262H153.431V21.3466H138.815V0.681479Z" fill="#C4963C"/>
<path d="M162.252 17.5262H166.304C166.96 17.5262 167.597 17.42 168.214 17.2078C168.832 16.9955 169.382 16.6482 169.864 16.1658C170.346 15.6642 170.732 15.0178 171.022 14.2267C171.311 13.4356 171.456 12.4708 171.456 11.3324C171.456 10.2905 171.35 9.35465 171.138 8.52496C170.945 7.67597 170.617 6.95241 170.153 6.35426C169.69 5.75611 169.073 5.30267 168.301 4.99395C167.549 4.66593 166.613 4.50192 165.494 4.50192H162.252V17.5262ZM157.708 0.681479H166.622C167.954 0.681479 169.189 0.893725 170.327 1.31822C171.485 1.74271 172.479 2.37945 173.308 3.22844C174.157 4.07743 174.813 5.13866 175.276 6.41214C175.759 7.68562 176 9.181 176 10.8983C176 12.4033 175.807 13.7925 175.421 15.066C175.035 16.3395 174.447 17.4393 173.656 18.3655C172.884 19.2917 171.909 20.0249 170.732 20.5651C169.575 21.0861 168.205 21.3466 166.622 21.3466H157.708V0.681479Z" fill="#C4963C"/>
</svg>
